<svg width="24" height="24" viewBox="0 0 24 24" fill="none" xmlns="http://www.w3.org/2000/svg">
<rect width="24" height="24" rx="12" fill="#F5F9FF"/>
<path d="M8.30769 9.38095C8.30769 9.19335 8.34351 9.00758 8.41309 8.83426C8.48267 8.66094 8.58466 8.50345 8.71324 8.3708C8.84181 8.23814 8.99445 8.13292 9.16244 8.06112C9.33043 7.98933 9.51048 7.95238 9.69231 7.95238C9.87414 7.95238 10.0542 7.98933 10.2222 8.06112C10.3902 8.13292 10.5428 8.23814 10.6714 8.3708C10.8 8.50345 10.9019 8.66094 10.9715 8.83426C11.0411 9.00758 11.0769 9.19335 11.0769 9.38095C11.0769 9.75983 10.931 10.1232 10.6714 10.3911C10.4117 10.659 10.0595 10.8095 9.69231 10.8095C9.32508 10.8095 8.9729 10.659 8.71324 10.3911C8.45357 10.1232 8.30769 9.75983 8.30769 9.38095ZM9.69231 7C9.08027 7 8.4933 7.25085 8.06052 7.69736C7.62775 8.14388 7.38462 8.74948 7.38462 9.38095C7.38462 10.0124 7.62775 10.618 8.06052 11.0645C8.4933 11.5111 9.08027 11.7619 9.69231 11.7619C10.3043 11.7619 10.8913 11.5111 11.3241 11.0645C11.7569 10.618 12 10.0124 12 9.38095C12 8.74948 11.7569 8.14388 11.3241 7.69736C10.8913 7.25085 10.3043 7 9.69231 7ZM14.3077 9.85714C14.3077 9.60456 14.4049 9.36231 14.5781 9.18371C14.7512 9.0051 14.986 8.90476 15.2308 8.90476C15.4756 8.90476 15.7104 9.0051 15.8835 9.18371C16.0566 9.36231 16.1538 9.60456 16.1538 9.85714C16.1538 10.1097 16.0566 10.352 15.8835 10.5306C15.7104 10.7092 15.4756 10.8095 15.2308 10.8095C14.986 10.8095 14.7512 10.7092 14.5781 10.5306C14.4049 10.352 14.3077 10.1097 14.3077 9.85714ZM15.2308 7.95238C14.7411 7.95238 14.2716 8.15306 13.9253 8.51027C13.5791 8.86748 13.3846 9.35197 13.3846 9.85714C13.3846 10.3623 13.5791 10.8468 13.9253 11.204C14.2716 11.5612 14.7411 11.7619 15.2308 11.7619C15.7204 11.7619 16.19 11.5612 16.5362 11.204C16.8824 10.8468 17.0769 10.3623 17.0769 9.85714C17.0769 9.35197 16.8824 8.86748 16.5362 8.51027C16.19 8.15306 15.7204 7.95238 15.2308 7.95238ZM6 14.1429C6 13.764 6.14588 13.4006 6.40554 13.1327C6.66521 12.8648 7.01739 12.7143 7.38462 12.7143H12C12.3672 12.7143 12.7194 12.8648 12.9791 13.1327C13.2387 13.4006 13.3846 13.764 13.3846 14.1429V14.2495C13.3844 14.2932 13.3814 14.3368 13.3754 14.38C13.3229 14.8417 13.1564 15.2818 12.8917 15.6581C12.3868 16.3771 11.4268 17 9.69231 17C7.95785 17 6.99877 16.3771 6.492 15.6581C6.22767 15.2817 6.06144 14.8417 6.00923 14.38C6.00471 14.3366 6.00163 14.2931 6 14.2495V14.1429ZM6.92308 14.2286V14.2352L6.92677 14.2819C6.9624 14.5768 7.06973 14.8575 7.23877 15.0981C7.53969 15.5248 8.19508 16.0476 9.69231 16.0476C11.1895 16.0476 11.8449 15.5248 12.1458 15.0981C12.3149 14.8575 12.4222 14.5768 12.4578 14.2819L12.4615 14.2343V14.1429C12.4615 14.0166 12.4129 13.8954 12.3264 13.8061C12.2398 13.7168 12.1224 13.6667 12 13.6667H7.38462C7.26221 13.6667 7.14481 13.7168 7.05826 13.8061C6.9717 13.8954 6.92308 14.0166 6.92308 14.1429V14.2286ZM15.2308 16.0476C14.688 16.0476 14.2431 15.9619 13.8831 15.821C14.0297 15.5406 14.1416 15.2424 14.2163 14.9333C14.4637 15.0295 14.7923 15.0952 15.2308 15.0952C16.2637 15.0952 16.6874 14.7314 16.8738 14.461C16.9837 14.3037 17.0529 14.1201 17.0751 13.9276L17.0769 13.901C17.076 13.8385 17.0512 13.7789 17.008 13.7351C16.9649 13.6912 16.9067 13.6667 16.8462 13.6667H14.2615C14.1931 13.3214 14.0512 12.9961 13.8462 12.7143H16.8462C17.4831 12.7143 18 13.2476 18 13.9048V13.921C17.9994 13.9557 17.9969 13.9903 17.9926 14.0248C17.9545 14.382 17.828 14.723 17.6252 15.0152C17.2357 15.5781 16.5055 16.0476 15.2308 16.0476Z" fill="#FFD700"/>
</svg>
