<svg width="24" height="24" viewBox="0 0 24 24" fill="none" xmlns="http://www.w3.org/2000/svg">
<path d="M11.3786 6.44784C11.6377 6.18211 11.947 5.97047 12.2886 5.82521C12.6301 5.67994 12.9971 5.60394 13.3683 5.60162C13.7394 5.59929 14.1074 5.67069 14.4507 5.81166C14.794 5.95263 15.106 6.16038 15.3684 6.42285C15.6308 6.68531 15.8385 6.99728 15.9795 7.34064C16.1204 7.684 16.1917 8.05193 16.1894 8.42308C16.187 8.79423 16.1109 9.16122 15.9656 9.50274C15.8203 9.84427 15.6086 10.1536 15.3428 10.4126L10.9822 14.7738C10.8265 14.9322 10.641 15.0581 10.4363 15.1443C10.2317 15.2306 10.0121 15.2754 9.79001 15.2764C9.56796 15.2773 9.34792 15.2343 9.14259 15.1497C8.93725 15.0652 8.75069 14.9408 8.59365 14.7839C8.43662 14.6269 8.31222 14.4403 8.22764 14.235C8.14306 14.0297 8.09996 13.8097 8.10084 13.5876C8.10172 13.3656 8.14655 13.1459 8.23276 12.9412C8.31896 12.7366 8.44483 12.5511 8.6031 12.3953L12.9643 8.0341L13.7572 8.82694L9.39594 13.1882C9.34239 13.2399 9.29967 13.3017 9.27029 13.3702C9.2409 13.4386 9.22543 13.5121 9.22479 13.5866C9.22414 13.661 9.23833 13.7349 9.26652 13.8038C9.29471 13.8727 9.33635 13.9353 9.38899 13.9879C9.44164 14.0406 9.50424 14.0822 9.57315 14.1104C9.64206 14.1386 9.7159 14.1528 9.79035 14.1522C9.8648 14.1515 9.93838 14.136 10.0068 14.1067C10.0752 14.0773 10.1371 14.0346 10.1888 13.981L14.5506 9.61979C14.7068 9.46357 14.8307 9.27812 14.9152 9.07402C14.9998 8.86991 15.0433 8.65116 15.0433 8.43024C15.0433 8.20932 14.9998 7.99056 14.9152 7.78646C14.8307 7.58236 14.7068 7.3969 14.5506 7.24069C14.3943 7.08448 14.2089 6.96056 14.0048 6.87602C13.8007 6.79148 13.5819 6.74796 13.361 6.74796C13.1401 6.74796 12.9213 6.79148 12.7172 6.87602C12.5131 6.96056 12.3277 7.08448 12.1715 7.24069L7.81025 11.6025C7.29956 12.1312 7.01698 12.8394 7.02337 13.5745C7.02975 14.3096 7.3246 15.0127 7.8444 15.5325C8.36421 16.0523 9.06737 16.3472 9.80246 16.3536C10.5375 16.36 11.2457 16.0774 11.7745 15.5667L16.5327 10.8091L17.3255 11.6025L12.5679 16.3601C11.8318 17.0962 10.8334 17.5098 9.79237 17.5098C8.75134 17.5098 7.75296 17.0962 7.01685 16.3601C6.28073 15.624 5.86719 14.6256 5.86719 13.5846C5.86719 12.5436 6.28073 11.5452 7.01685 10.8091L11.3786 6.44784Z" fill="#6B7280"/>
</svg>
