<svg width="50" height="50" viewBox="0 0 50 50" fill="none" xmlns="http://www.w3.org/2000/svg">
<path d="M27.5 24V15C27.5 14.2917 27.26 13.6983 26.78 13.22C26.3 12.7417 25.7067 12.5017 25 12.5C24.2933 12.4983 23.7 12.7383 23.22 13.22C22.74 13.7017 22.5 14.295 22.5 15V24.9375C22.5 25.2708 22.5625 25.5942 22.6875 25.9075C22.8125 26.2208 23 26.5017 23.25 26.75L31.5 35C31.9583 35.4583 32.5416 35.6875 33.25 35.6875C33.9583 35.6875 34.5416 35.4583 35 35C35.4583 34.5417 35.6875 33.9583 35.6875 33.25C35.6875 32.5417 35.4583 31.9583 35 31.5L27.5 24ZM25 50C21.5417 50 18.2917 49.3433 15.25 48.03C12.2083 46.7167 9.5625 44.9358 7.3125 42.6875C5.0625 40.4392 3.28167 37.7933 1.97 34.75C0.658336 31.7067 0.00166983 28.4567 3.16455e-06 25C-0.0016635 21.5433 0.655003 18.2933 1.97 15.25C3.285 12.2067 5.06583 9.56083 7.3125 7.3125C9.55916 5.06417 12.205 3.28333 15.25 1.97C18.295 0.656667 21.545 0 25 0C28.455 0 31.705 0.656667 34.75 1.97C37.795 3.28333 40.4408 5.06417 42.6875 7.3125C44.9341 9.56083 46.7158 12.2067 48.0325 15.25C49.3491 18.2933 50.005 21.5433 50 25C49.995 28.4567 49.3383 31.7067 48.03 34.75C46.7216 37.7933 44.9408 40.4392 42.6875 42.6875C40.4341 44.9358 37.7883 46.7175 34.75 48.0325C31.7116 49.3475 28.4617 50.0033 25 50ZM25 45C30.5416 45 35.2608 43.0525 39.1575 39.1575C43.0541 35.2625 45.0016 30.5433 45 25C44.9983 19.4567 43.0508 14.7375 39.1575 10.8425C35.2641 6.9475 30.545 5 25 5C19.455 5 14.7358 6.94833 10.8425 10.845C6.94917 14.7417 5.00167 19.46 5 25C4.99833 30.54 6.94667 35.2592 10.845 39.1575C14.7433 43.0558 19.4617 45.0033 25 45Z" fill="#FFD700"/>
</svg>
