<svg width="24" height="24" viewBox="0 0 24 24" fill="none" xmlns="http://www.w3.org/2000/svg">
<path d="M9.70406 19.5449L2.95406 12.7949C2.84918 12.6904 2.76597 12.5662 2.70919 12.4295C2.65241 12.2927 2.62317 12.1461 2.62317 11.998C2.62317 11.85 2.65241 11.7034 2.70919 11.5666C2.76597 11.4299 2.84918 11.3057 2.95406 11.2012L9.70406 4.45117C9.91541 4.23983 10.2021 4.12109 10.5009 4.12109C10.7998 4.12109 11.0865 4.23983 11.2978 4.45117C11.5092 4.66251 11.6279 4.94916 11.6279 5.24805C11.6279 5.54693 11.5092 5.83358 11.2978 6.04492L6.46875 10.874L20.25 10.874C20.5484 10.874 20.8345 10.9925 21.0455 11.2035C21.2565 11.4145 21.375 11.7006 21.375 11.999C21.375 12.2974 21.2565 12.5835 21.0455 12.7945C20.8345 13.0055 20.5484 13.124 20.25 13.124L6.46875 13.124L11.2987 17.953C11.5101 18.1644 11.6288 18.451 11.6288 18.7499C11.6288 19.0488 11.5101 19.3354 11.2987 19.5468C11.0874 19.7581 10.8008 19.8769 10.5019 19.8769C10.203 19.8769 9.91634 19.7581 9.705 19.5468L9.70406 19.5449Z" fill="#1F2326"/>
</svg>
