<svg width="20" height="20" viewBox="0 0 20 20" fill="none" xmlns="http://www.w3.org/2000/svg">
<path d="M17.3313 15.0007C17.3198 15.0206 17.3036 15.0375 17.2842 15.0499C17.2648 15.0623 17.2427 15.0699 17.2198 15.072C17.1968 15.0742 17.1737 15.0708 17.1524 15.0622C17.131 15.0536 17.112 15.04 17.097 15.0226L6.50555 3.37495C6.47577 3.34138 6.45358 3.3018 6.44047 3.25889C6.42736 3.21598 6.42364 3.17075 6.42957 3.12627C6.4355 3.0818 6.45094 3.03912 6.47483 3.00115C6.49873 2.96317 6.53052 2.93079 6.56805 2.9062C7.61197 2.21575 8.84004 1.85659 10.0915 1.87573C13.5157 1.92729 16.2345 4.77416 16.2501 8.1976C16.261 10.9226 16.8993 13.0054 17.3298 13.7445C17.4417 13.9348 17.5009 14.1516 17.5012 14.3724C17.5015 14.5932 17.4428 14.8101 17.3313 15.0007ZM16.7126 16.4554C16.8241 16.5782 16.8822 16.7402 16.8742 16.9058C16.8662 17.0715 16.7928 17.2271 16.67 17.3386C16.5472 17.4501 16.3852 17.5082 16.2196 17.5002C16.0539 17.4923 15.8983 17.4188 15.7868 17.296L14.2673 15.6257H13.0595C12.9164 16.3326 12.5332 16.9682 11.975 17.4248C11.4167 17.8813 10.7177 18.1308 9.99656 18.1308C9.27538 18.1308 8.57639 17.8813 8.01814 17.4248C7.45989 16.9682 7.07674 16.3326 6.93367 15.6257H3.74305C3.52991 15.6271 3.32007 15.5732 3.13398 15.4693C2.9479 15.3653 2.79194 15.2149 2.68133 15.0328C2.56386 14.836 2.50126 14.6113 2.50002 14.3822C2.49878 14.153 2.55896 13.9277 2.6743 13.7296C3.10789 12.9695 3.74461 10.8671 3.74461 8.12573C3.74375 7.02335 4.03661 5.94064 4.59305 4.98901L3.28133 3.54604C3.22497 3.4855 3.18119 3.41438 3.15253 3.3368C3.12386 3.25922 3.11088 3.17673 3.11433 3.09409C3.11779 3.01146 3.1376 2.93033 3.17264 2.85541C3.20768 2.78049 3.25724 2.71327 3.31845 2.65765C3.37965 2.60202 3.45129 2.5591 3.52921 2.53137C3.60713 2.50363 3.68978 2.49164 3.77236 2.49608C3.85495 2.50053 3.93583 2.52132 4.01033 2.55725C4.08482 2.59318 4.15144 2.64354 4.20633 2.70541L16.7126 16.4554ZM11.7649 15.6257H8.2282C8.3572 15.9917 8.59657 16.3086 8.9133 16.5328C9.23003 16.757 9.60852 16.8774 9.99656 16.8774C10.3846 16.8774 10.7631 16.757 11.0798 16.5328C11.3966 16.3086 11.6359 15.9917 11.7649 15.6257Z" fill="#202020"/>
</svg>
