<svg width="21" height="16" viewBox="0 0 21 16" fill="none" xmlns="http://www.w3.org/2000/svg">
<path d="M16.2768 14.8655C16.3611 14.9658 16.415 15.088 16.4322 15.2179C16.4494 15.3478 16.4291 15.4799 16.3738 15.5986C16.3184 15.7173 16.2303 15.8178 16.1198 15.8881C16.0093 15.9585 15.881 15.9958 15.75 15.9956H1.31246C1.18153 15.9956 1.05333 15.9582 0.942944 15.8878C0.832555 15.8174 0.744563 15.7169 0.689319 15.5982C0.634075 15.4795 0.613875 15.3475 0.631094 15.2177C0.648314 15.0879 0.702237 14.9657 0.786523 14.8655C2.07043 13.3376 3.66715 12.2522 5.44176 11.6712C4.36402 11 3.53422 9.996 3.0779 8.81114C2.62159 7.62629 2.56358 6.32505 2.91266 5.1043C3.26174 3.88354 3.99891 2.80969 5.01264 2.0452C6.02638 1.28071 7.26152 0.867188 8.53121 0.867188C9.8009 0.867188 11.036 1.28071 12.0498 2.0452C13.0635 2.80969 13.8007 3.88354 14.1498 5.1043C14.4988 6.32505 14.4408 7.62629 13.9845 8.81114C13.5282 9.996 12.6984 11 11.6207 11.6712C13.3953 12.2522 14.992 13.3376 16.2768 14.8655ZM16.1676 2.70883C16.0845 2.74425 16.0093 2.79569 15.9461 2.86021C15.8829 2.92473 15.833 3.00107 15.7993 3.08487C15.7657 3.16866 15.7488 3.25827 15.7498 3.34858C15.7508 3.43888 15.7695 3.52811 15.805 3.61117C16.2223 4.59251 16.4375 5.64796 16.4375 6.71437C16.4375 7.78079 16.2223 8.83624 15.805 9.81758C15.7333 9.98533 15.7312 10.1747 15.7991 10.344C15.867 10.5133 15.9994 10.6487 16.1672 10.7204C16.3349 10.792 16.5243 10.7941 16.6936 10.7262C16.8629 10.6583 16.9983 10.5259 17.07 10.3581C17.5599 9.20581 17.8124 7.96652 17.8124 6.71437C17.8124 5.46223 17.5599 4.22294 17.07 3.07062C16.9983 2.903 16.8629 2.77072 16.6937 2.70287C16.5245 2.63502 16.3353 2.63717 16.1676 2.70883ZM19.5922 1.97492C19.5585 1.88935 19.5079 1.81142 19.4435 1.74575C19.3791 1.68008 19.3022 1.62799 19.2173 1.59258C19.1324 1.55717 19.0413 1.53916 18.9493 1.53961C18.8573 1.54006 18.7664 1.55895 18.6818 1.59519C18.5973 1.63142 18.5209 1.68425 18.4571 1.75055C18.3934 1.81684 18.3435 1.89526 18.3106 1.98115C18.2777 2.06705 18.2624 2.15867 18.2655 2.2506C18.2687 2.34252 18.2902 2.43288 18.3289 2.51633C18.8954 3.84342 19.1875 5.27143 19.1875 6.71437C19.1875 8.15731 18.8954 9.58533 18.3289 10.9124C18.2902 10.9959 18.2687 11.0862 18.2655 11.1782C18.2624 11.2701 18.2777 11.3617 18.3106 11.4476C18.3435 11.5335 18.3934 11.6119 18.4571 11.6782C18.5209 11.7445 18.5973 11.7973 18.6818 11.8336C18.7664 11.8698 18.8573 11.8887 18.9493 11.8891C19.0413 11.8896 19.1324 11.8716 19.2173 11.8362C19.3022 11.8008 19.3791 11.7487 19.4435 11.683C19.5079 11.6173 19.5585 11.5394 19.5922 11.4538C20.2324 9.95576 20.5625 8.34351 20.5625 6.71437C20.5625 5.08524 20.2324 3.47299 19.5922 1.97492Z" fill="#FFD700"/>
</svg>
