<svg width="25" height="24" viewBox="0 0 25 24" fill="none" xmlns="http://www.w3.org/2000/svg">
<path d="M19.8334 3H17.5834V2.25C17.5834 2.05109 17.5044 1.86032 17.3637 1.71967C17.2231 1.57902 17.0323 1.5 16.8334 1.5C16.6345 1.5 16.4437 1.57902 16.303 1.71967C16.1624 1.86032 16.0834 2.05109 16.0834 2.25V3H8.58337V2.25C8.58337 2.05109 8.50436 1.86032 8.3637 1.71967C8.22305 1.57902 8.03229 1.5 7.83337 1.5C7.63446 1.5 7.4437 1.57902 7.30304 1.71967C7.16239 1.86032 7.08337 2.05109 7.08337 2.25V3H4.83337C4.43555 3 4.05402 3.15804 3.77271 3.43934C3.49141 3.72064 3.33337 4.10218 3.33337 4.5V19.5C3.33337 19.8978 3.49141 20.2794 3.77271 20.5607C4.05402 20.842 4.43555 21 4.83337 21H19.8334C20.2312 21 20.6127 20.842 20.894 20.5607C21.1753 20.2794 21.3334 19.8978 21.3334 19.5V4.5C21.3334 4.10218 21.1753 3.72064 20.894 3.43934C20.6127 3.15804 20.2312 3 19.8334 3ZM8.20837 17.25C7.98587 17.25 7.76836 17.184 7.58336 17.0604C7.39835 16.9368 7.25416 16.7611 7.16901 16.5555C7.08386 16.35 7.06158 16.1238 7.10499 15.9055C7.1484 15.6873 7.25554 15.4868 7.41288 15.3295C7.57021 15.1722 7.77067 15.065 7.9889 15.0216C8.20713 14.9782 8.43333 15.0005 8.63889 15.0856C8.84446 15.1708 9.02016 15.315 9.14378 15.5C9.26739 15.685 9.33337 15.9025 9.33337 16.125C9.33337 16.4234 9.21485 16.7095 9.00387 16.9205C8.79289 17.1315 8.50674 17.25 8.20837 17.25ZM12.3334 17.25C12.1109 17.25 11.8934 17.184 11.7084 17.0604C11.5234 16.9368 11.3792 16.7611 11.294 16.5555C11.2089 16.35 11.1866 16.1238 11.23 15.9055C11.2734 15.6873 11.3805 15.4868 11.5379 15.3295C11.6952 15.1722 11.8957 15.065 12.1139 15.0216C12.3321 14.9782 12.5583 15.0005 12.7639 15.0856C12.9695 15.1708 13.1452 15.315 13.2688 15.5C13.3924 15.685 13.4584 15.9025 13.4584 16.125C13.4584 16.4234 13.3398 16.7095 13.1289 16.9205C12.9179 17.1315 12.6317 17.25 12.3334 17.25ZM12.3334 13.5C12.1109 13.5 11.8934 13.434 11.7084 13.3104C11.5234 13.1868 11.3792 13.0111 11.294 12.8055C11.2089 12.6 11.1866 12.3738 11.23 12.1555C11.2734 11.9373 11.3805 11.7368 11.5379 11.5795C11.6952 11.4222 11.8957 11.315 12.1139 11.2716C12.3321 11.2282 12.5583 11.2505 12.7639 11.3356C12.9695 11.4208 13.1452 11.565 13.2688 11.75C13.3924 11.935 13.4584 12.1525 13.4584 12.375C13.4584 12.6734 13.3398 12.9595 13.1289 13.1705C12.9179 13.3815 12.6317 13.5 12.3334 13.5ZM16.4584 17.25C16.2359 17.25 16.0184 17.184 15.8334 17.0604C15.6484 16.9368 15.5042 16.7611 15.419 16.5555C15.3339 16.35 15.3116 16.1238 15.355 15.9055C15.3984 15.6873 15.5055 15.4868 15.6629 15.3295C15.8202 15.1722 16.0207 15.065 16.2389 15.0216C16.4571 14.9782 16.6833 15.0005 16.8889 15.0856C17.0945 15.1708 17.2702 15.315 17.3938 15.5C17.5174 15.685 17.5834 15.9025 17.5834 16.125C17.5834 16.4234 17.4648 16.7095 17.2539 16.9205C17.0429 17.1315 16.7567 17.25 16.4584 17.25ZM16.4584 13.5C16.2359 13.5 16.0184 13.434 15.8334 13.3104C15.6484 13.1868 15.5042 13.0111 15.419 12.8055C15.3339 12.6 15.3116 12.3738 15.355 12.1555C15.3984 11.9373 15.5055 11.7368 15.6629 11.5795C15.8202 11.4222 16.0207 11.315 16.2389 11.2716C16.4571 11.2282 16.6833 11.2505 16.8889 11.3356C17.0945 11.4208 17.2702 11.565 17.3938 11.75C17.5174 11.935 17.5834 12.1525 17.5834 12.375C17.5834 12.6734 17.4648 12.9595 17.2539 13.1705C17.0429 13.3815 16.7567 13.5 16.4584 13.5ZM19.8334 7.5H4.83337V4.5H7.08337V5.25C7.08337 5.44891 7.16239 5.63968 7.30304 5.78033C7.4437 5.92098 7.63446 6 7.83337 6C8.03229 6 8.22305 5.92098 8.3637 5.78033C8.50436 5.63968 8.58337 5.44891 8.58337 5.25V4.5H16.0834V5.25C16.0834 5.44891 16.1624 5.63968 16.303 5.78033C16.4437 5.92098 16.6345 6 16.8334 6C17.0323 6 17.2231 5.92098 17.3637 5.78033C17.5044 5.63968 17.5834 5.44891 17.5834 5.25V4.5H19.8334V7.5Z" fill="#202020"/>
</svg>
