<svg width="25" height="24" viewBox="0 0 25 24" fill="none" xmlns="http://www.w3.org/2000/svg">
<path d="M20.1667 3H17.9167V2.25C17.9167 2.05109 17.8377 1.86032 17.6971 1.71967C17.5564 1.57902 17.3657 1.5 17.1667 1.5C16.9678 1.5 16.7771 1.57902 16.6364 1.71967C16.4958 1.86032 16.4167 2.05109 16.4167 2.25V3H8.91675V2.25C8.91675 2.05109 8.83773 1.86032 8.69708 1.71967C8.55643 1.57902 8.36566 1.5 8.16675 1.5C7.96784 1.5 7.77707 1.57902 7.63642 1.71967C7.49577 1.86032 7.41675 2.05109 7.41675 2.25V3H5.16675C4.76892 3 4.38739 3.15804 4.10609 3.43934C3.82478 3.72064 3.66675 4.10218 3.66675 4.5V19.5C3.66675 19.8978 3.82478 20.2794 4.10609 20.5607C4.38739 20.842 4.76892 21 5.16675 21H20.1667C20.5646 21 20.9461 20.842 21.2274 20.5607C21.5087 20.2794 21.6667 19.8978 21.6667 19.5V4.5C21.6667 4.10218 21.5087 3.72064 21.2274 3.43934C20.9461 3.15804 20.5646 3 20.1667 3ZM8.54175 17.25C8.31924 17.25 8.10174 17.184 7.91673 17.0604C7.73173 16.9368 7.58753 16.7611 7.50238 16.5555C7.41723 16.35 7.39496 16.1238 7.43836 15.9055C7.48177 15.6873 7.58892 15.4868 7.74625 15.3295C7.90359 15.1722 8.10404 15.065 8.32227 15.0216C8.5405 14.9782 8.7667 15.0005 8.97227 15.0856C9.17783 15.1708 9.35354 15.315 9.47715 15.5C9.60077 15.685 9.66675 15.9025 9.66675 16.125C9.66675 16.4234 9.54822 16.7095 9.33724 16.9205C9.12626 17.1315 8.84012 17.25 8.54175 17.25ZM12.6667 17.25C12.4442 17.25 12.2267 17.184 12.0417 17.0604C11.8567 16.9368 11.7125 16.7611 11.6274 16.5555C11.5422 16.35 11.52 16.1238 11.5634 15.9055C11.6068 15.6873 11.7139 15.4868 11.8713 15.3295C12.0286 15.1722 12.229 15.065 12.4473 15.0216C12.6655 14.9782 12.8917 15.0005 13.0973 15.0856C13.3028 15.1708 13.4785 15.315 13.6022 15.5C13.7258 15.685 13.7917 15.9025 13.7917 16.125C13.7917 16.4234 13.6732 16.7095 13.4622 16.9205C13.2513 17.1315 12.9651 17.25 12.6667 17.25ZM12.6667 13.5C12.4442 13.5 12.2267 13.434 12.0417 13.3104C11.8567 13.1868 11.7125 13.0111 11.6274 12.8055C11.5422 12.6 11.52 12.3738 11.5634 12.1555C11.6068 11.9373 11.7139 11.7368 11.8713 11.5795C12.0286 11.4222 12.229 11.315 12.4473 11.2716C12.6655 11.2282 12.8917 11.2505 13.0973 11.3356C13.3028 11.4208 13.4785 11.565 13.6022 11.75C13.7258 11.935 13.7917 12.1525 13.7917 12.375C13.7917 12.6734 13.6732 12.9595 13.4622 13.1705C13.2513 13.3815 12.9651 13.5 12.6667 13.5ZM16.7917 17.25C16.5692 17.25 16.3517 17.184 16.1667 17.0604C15.9817 16.9368 15.8375 16.7611 15.7524 16.5555C15.6672 16.35 15.645 16.1238 15.6884 15.9055C15.7318 15.6873 15.8389 15.4868 15.9963 15.3295C16.1536 15.1722 16.354 15.065 16.5723 15.0216C16.7905 14.9782 17.0167 15.0005 17.2223 15.0856C17.4278 15.1708 17.6035 15.315 17.7272 15.5C17.8508 15.685 17.9167 15.9025 17.9167 16.125C17.9167 16.4234 17.7982 16.7095 17.5872 16.9205C17.3763 17.1315 17.0901 17.25 16.7917 17.25ZM16.7917 13.5C16.5692 13.5 16.3517 13.434 16.1667 13.3104C15.9817 13.1868 15.8375 13.0111 15.7524 12.8055C15.6672 12.6 15.645 12.3738 15.6884 12.1555C15.7318 11.9373 15.8389 11.7368 15.9963 11.5795C16.1536 11.4222 16.354 11.315 16.5723 11.2716C16.7905 11.2282 17.0167 11.2505 17.2223 11.3356C17.4278 11.4208 17.6035 11.565 17.7272 11.75C17.8508 11.935 17.9167 12.1525 17.9167 12.375C17.9167 12.6734 17.7982 12.9595 17.5872 13.1705C17.3763 13.3815 17.0901 13.5 16.7917 13.5ZM20.1667 7.5H5.16675V4.5H7.41675V5.25C7.41675 5.44891 7.49577 5.63968 7.63642 5.78033C7.77707 5.92098 7.96784 6 8.16675 6C8.36566 6 8.55643 5.92098 8.69708 5.78033C8.83773 5.63968 8.91675 5.44891 8.91675 5.25V4.5H16.4167V5.25C16.4167 5.44891 16.4958 5.63968 16.6364 5.78033C16.7771 5.92098 16.9678 6 17.1667 6C17.3657 6 17.5564 5.92098 17.6971 5.78033C17.8377 5.63968 17.9167 5.44891 17.9167 5.25V4.5H20.1667V7.5Z" fill="#202020"/>
</svg>
