<svg width="14" height="15" viewBox="0 0 14 15" fill="none" xmlns="http://www.w3.org/2000/svg">
<path d="M13 2.83333L11.6667 7.5H3.91781M12.3333 10.1667H4.33333L3 1.5H1M9.66667 3.16667H8M8 3.16667H6.33333M8 3.16667V4.83333M8 3.16667V1.5M5 12.8333C5 13.2015 4.70152 13.5 4.33333 13.5C3.96515 13.5 3.66667 13.2015 3.66667 12.8333C3.66667 12.4651 3.96515 12.1667 4.33333 12.1667C4.70152 12.1667 5 12.4651 5 12.8333ZM12.3333 12.8333C12.3333 13.2015 12.0349 13.5 11.6667 13.5C11.2985 13.5 11 13.2015 11 12.8333C11 12.4651 11.2985 12.1667 11.6667 12.1667C12.0349 12.1667 12.3333 12.4651 12.3333 12.8333Z" stroke="currentColor" stroke-width="1.6" stroke-linecap="round" stroke-linejoin="round"/>
</svg>