<svg width="24" height="24" viewBox="0 0 24 24" fill="none" xmlns="http://www.w3.org/2000/svg">
<g clip-path="url(#clip0_10456_75114)">
<path d="M20.4 0C22.3882 0 24 1.61177 24 3.6V20.4C24 22.3882 22.3882 24 20.4 24H3.6C1.61177 24 0 22.3882 0 20.4V3.6C0 1.61177 1.61177 0 3.6 0H20.4ZM20.4 2.4H3.6C2.93726 2.4 2.4 2.93726 2.4 3.6V20.4C2.4 21.0626 2.93726 21.6 3.6 21.6H20.4C21.0626 21.6 21.6 21.0626 21.6 20.4V3.6C21.6 2.93726 21.0626 2.4 20.4 2.4Z" fill="#212121"/>
</g>
<defs>
<clipPath id="clip0_10456_75114">
<rect width="24" height="24" fill="white"/>
</clipPath>
</defs>
</svg>
