<svg width="60" height="60" viewBox="0 0 60 60" fill="none" xmlns="http://www.w3.org/2000/svg">
<g clip-path="url(#clip0_10082_86743)">
<path d="M33.3333 23.332H26.6667C26.2246 23.332 25.8007 23.5076 25.4882 23.8202C25.1756 24.1327 25 24.5567 25 24.9987V34.9987C25 35.4407 25.1756 35.8646 25.4882 36.1772C25.8007 36.4898 26.2246 36.6654 26.6667 36.6654H33.3333C33.7754 36.6654 34.1993 36.4898 34.5118 36.1772C34.8244 35.8646 35 35.4407 35 34.9987V24.9987C35 24.5567 34.8244 24.1327 34.5118 23.8202C34.1993 23.5076 33.7754 23.332 33.3333 23.332ZM32.6667 34.332H27.3333V25.6654H32.6667V34.332Z" fill="#FFD700"/>
<path d="M56.1821 20.6346L49.3654 13.818C49.055 13.5101 48.636 13.3365 48.1987 13.3346H39.8654V10.0846C39.888 9.20889 39.5649 8.35945 38.9661 7.72006C38.3672 7.08067 37.5407 6.70272 36.6654 6.66797H23.0654C22.6376 6.6848 22.2176 6.78729 21.8301 6.96938C21.4427 7.15146 21.0957 7.40943 20.8098 7.72802C20.5238 8.04661 20.3047 8.41933 20.1654 8.82412C20.0261 9.22891 19.9694 9.65755 19.9987 10.0846V13.3346H11.7987C11.5794 13.3334 11.3619 13.3754 11.1589 13.4584C10.9558 13.5413 10.7711 13.6635 10.6154 13.818L3.81539 20.6346C3.66092 20.7904 3.53871 20.9751 3.45577 21.1781C3.37283 21.3812 3.33079 21.5986 3.33206 21.818V46.668C3.33206 47.552 3.68325 48.3999 4.30837 49.025C4.93349 49.6501 5.78134 50.0013 6.66539 50.0013H53.3321C54.2161 50.0013 55.064 49.6501 55.6891 49.025C56.3142 48.3999 56.6654 47.552 56.6654 46.668V21.8013C56.6635 21.3641 56.49 20.9451 56.1821 20.6346ZM23.3321 10.0013H36.6654V13.3346H23.3321V10.0013ZM53.3321 28.3346H36.6654V31.5513H53.3321V46.668H6.66539V31.5513H23.3321V28.3346H6.66539V22.5013L12.4987 16.668H47.4987L53.3321 22.5013V28.3346Z" fill="#FFD700"/>
</g>
<defs>
<clipPath id="clip0_10082_86743">
<rect width="60" height="60" fill="white"/>
</clipPath>
</defs>
</svg>
