<svg width="40" height="40" viewBox="0 0 40 40" fill="none" xmlns="http://www.w3.org/2000/svg">
<g clip-path="url(#clip0_9322_75686)">
<path d="M23.3327 13.3327H7.77713C7.48244 13.3327 7.19983 13.2156 6.99145 13.0072C6.78308 12.7989 6.66602 12.5163 6.66602 12.2216V7.77713C6.66602 7.48244 6.78308 7.19983 6.99145 6.99145C7.19983 6.78308 7.48244 6.66602 7.77713 6.66602H23.3327C23.6274 6.66602 23.91 6.78308 24.1184 6.99145C24.3267 7.19983 24.4438 7.48244 24.4438 7.77713V12.2216C24.4438 12.5163 24.3267 12.7989 24.1184 13.0072C23.91 13.2156 23.6274 13.3327 23.3327 13.3327ZM8.88824 11.1105H22.2216V8.82157H8.88824V11.1105Z" fill="black"/>
<path d="M23.3327 15.6445H7.77713C7.48244 15.6445 7.19983 15.7616 6.99145 15.97C6.78308 16.1783 6.66602 16.461 6.66602 16.7556V21.1112C6.66602 21.4059 6.78308 21.6885 6.99145 21.8969C7.19983 22.1052 7.48244 22.2223 7.77713 22.2223H20.3993L24.4438 18.1112V16.7556C24.4438 16.461 24.3267 16.1783 24.1184 15.97C23.91 15.7616 23.6274 15.6445 23.3327 15.6445ZM22.2216 20.0001H8.88824V17.7779H22.2216V20.0001Z" fill="black"/>
<path d="M12.2893 35.0115V34.9449L12.6449 33.4004H4.44488V4.44488H26.6671V15.8338L28.8893 13.7338V3.33377C28.8893 3.03908 28.7723 2.75647 28.5639 2.54809C28.3555 2.33972 28.0729 2.22266 27.7782 2.22266H3.33377C3.03908 2.22266 2.75647 2.33972 2.54809 2.54809C2.33972 2.75647 2.22266 3.03908 2.22266 3.33377V34.4449C2.22266 34.7396 2.33972 35.0222 2.54809 35.2306C2.75647 35.4389 3.03908 35.556 3.33377 35.556H12.2227C12.2317 35.3731 12.2539 35.1912 12.2893 35.0115Z" fill="black"/>
<path d="M24.4448 21.3008L23.5781 22.1786C23.7931 22.1342 23.9902 22.0272 24.1445 21.871C24.2987 21.7148 24.4032 21.5163 24.4448 21.3008Z" fill="black"/>
<path d="M6.66602 29.9342C6.66602 30.2289 6.78308 30.5115 6.99145 30.7199C7.19983 30.9282 7.48244 31.0453 7.77713 31.0453H13.1549L13.4882 29.6009L13.6327 28.9898V28.9342H8.88824V26.6675H15.9327L18.1549 24.4453H7.77713C7.48244 24.4453 7.19983 24.5624 6.99145 24.7707C6.78308 24.9791 6.66602 25.2617 6.66602 25.5564V29.9342Z" fill="black"/>
<path d="M37.2109 18.5221L33.4665 14.7776C33.3003 14.611 33.1029 14.4788 32.8855 14.3886C32.6682 14.2984 32.4351 14.252 32.1998 14.252C31.9645 14.252 31.7315 14.2984 31.5141 14.3886C31.2967 14.4788 31.0993 14.611 30.9331 14.7776L15.6998 30.0999L14.4443 35.4443C14.3973 35.6749 14.3962 35.9124 14.4412 36.1434C14.4861 36.3744 14.5762 36.5942 14.7062 36.7903C14.8363 36.9864 15.0037 37.155 15.199 37.2863C15.3943 37.4175 15.6136 37.509 15.8443 37.5554C15.9588 37.5666 16.0742 37.5666 16.1887 37.5554C16.3249 37.5767 16.4636 37.5767 16.5998 37.5554L21.9887 36.3665L37.2109 21.111C37.3772 20.9457 37.5092 20.7493 37.5993 20.5328C37.6893 20.3164 37.7357 20.0843 37.7357 19.8499C37.7357 19.6154 37.6893 19.3833 37.5993 19.1669C37.5092 18.9505 37.3772 18.754 37.2109 18.5888V18.5221ZM20.8554 34.3443L16.7887 35.2443L17.7776 31.211L29.1998 19.6665L32.3331 22.7999L20.8554 34.3443ZM33.5887 21.5443L30.4554 18.411L32.222 16.6665L35.3776 19.8221L33.5887 21.5443Z" fill="black"/>
</g>
<defs>
<clipPath id="clip0_9322_75686">
<rect width="40" height="40" fill="white"/>
</clipPath>
</defs>
</svg>
