<svg width="24" height="18" viewBox="0 0 24 18" fill="none" xmlns="http://www.w3.org/2000/svg">
<mask id="mask0_10126_85503" style="mask-type:luminance" maskUnits="userSpaceOnUse" x="0" y="0" width="24" height="18">
<path d="M22.2857 0H1.71429C0.767512 0 0 0.767512 0 1.71429V15.4286C0 16.3753 0.767512 17.1429 1.71429 17.1429H22.2857C23.2325 17.1429 24 16.3753 24 15.4286V1.71429C24 0.767512 23.2325 0 22.2857 0Z" fill="white"/>
</mask>
<g mask="url(#mask0_10126_85503)">
<path d="M22.2857 0H1.71429C0.767512 0 0 0.767512 0 1.71429V15.4286C0 16.3753 0.767512 17.1429 1.71429 17.1429H22.2857C23.2325 17.1429 24 16.3753 24 15.4286V1.71429C24 0.767512 23.2325 0 22.2857 0Z" fill="white"/>
<mask id="mask1_10126_85503" style="mask-type:alpha" maskUnits="userSpaceOnUse" x="0" y="0" width="24" height="18">
<path d="M22.2857 0H1.71429C0.767512 0 0 0.767512 0 1.71429V15.4286C0 16.3753 0.767512 17.1429 1.71429 17.1429H22.2857C23.2325 17.1429 24 16.3753 24 15.4286V1.71429C24 0.767512 23.2325 0 22.2857 0Z" fill="white"/>
</mask>
<g mask="url(#mask1_10126_85503)">
<path d="M24 0H0V17.1429H24V0Z" fill="#07319C"/>
<path fill-rule="evenodd" clip-rule="evenodd" d="M14.8574 8.57226C14.8574 7.63478 14.8574 6.52639 14.8574 5.71439C14.8574 5.08321 15.3691 4.57227 16.0003 4.57227H19.4289C20.0601 4.57227 20.5717 5.08321 20.5717 5.71439C20.5717 6.52639 20.5717 7.63478 20.5717 8.57226C20.5717 11.4294 17.7146 12.5723 17.7146 12.5723C17.7146 12.5723 14.8574 11.4294 14.8574 8.57226Z" fill="#008339"/>
<mask id="mask2_10126_85503" style="mask-type:alpha" maskUnits="userSpaceOnUse" x="14" y="4" width="7" height="9">
<path fill-rule="evenodd" clip-rule="evenodd" d="M14.8574 8.57226C14.8574 7.63478 14.8574 6.52639 14.8574 5.71439C14.8574 5.08321 15.3691 4.57227 16.0003 4.57227H19.4289C20.0601 4.57227 20.5717 5.08321 20.5717 5.71439C20.5717 6.52639 20.5717 7.63478 20.5717 8.57226C20.5717 11.4294 17.7146 12.5723 17.7146 12.5723C17.7146 12.5723 14.8574 11.4294 14.8574 8.57226Z" fill="white"/>
</mask>
<g mask="url(#mask2_10126_85503)">
<path fill-rule="evenodd" clip-rule="evenodd" d="M16.5715 6.8577C16.887 6.8577 17.1428 6.60186 17.1428 6.28627C17.1428 5.97068 16.887 5.71484 16.5715 5.71484C16.2559 5.71484 16 5.97068 16 6.28627C16 6.60186 16.2559 6.8577 16.5715 6.8577ZM16.5715 8.00055C16.887 8.00055 17.1428 7.74472 17.1428 7.42913C17.1428 7.11354 16.887 6.8577 16.5715 6.8577C16.2559 6.8577 16 7.11354 16 7.42913C16 7.74472 16.2559 8.00055 16.5715 8.00055ZM16.5715 9.14345C16.2559 9.14345 16 8.88759 16 8.57198C16 8.25639 16.2559 8.00055 16.5715 8.00055C16.887 8.00055 17.1428 8.25639 17.1428 8.57198C17.1428 8.88759 16.887 9.14345 16.5715 9.14345ZM16.5715 9.14345C16.887 9.14345 17.1428 9.39922 17.1428 9.71482C17.1428 10.0304 16.887 10.2863 16.5715 10.2863C16.2559 10.2863 16 10.0304 16 9.71482C16 9.39922 16.2559 9.14345 16.5715 9.14345ZM19.4286 9.71482C19.4286 10.0304 19.1727 10.2863 18.8571 10.2863C18.5415 10.2863 18.2857 10.0304 18.2857 9.71482C18.2857 9.39922 18.5415 9.14345 18.8571 9.14345C19.1727 9.14345 19.4286 9.39922 19.4286 9.71482ZM18.8571 8.00055C19.1727 8.00055 19.4286 8.25639 19.4286 8.57198C19.4286 8.88759 19.1727 9.14345 18.8571 9.14345C18.5415 9.14345 18.2857 8.88759 18.2857 8.57198C18.2857 8.25639 18.5415 8.00055 18.8571 8.00055ZM18.8571 6.8577C18.5415 6.8577 18.2857 7.11354 18.2857 7.42913C18.2857 7.74472 18.5415 8.00055 18.8571 8.00055C19.1727 8.00055 19.4286 7.74472 19.4286 7.42913C19.4286 7.11354 19.1727 6.8577 18.8571 6.8577ZM18.8571 6.8577C18.5415 6.8577 18.2857 6.60186 18.2857 6.28627C18.2857 5.97068 18.5415 5.71484 18.8571 5.71484C19.1727 5.71484 19.4286 5.97068 19.4286 6.28627C19.4286 6.60186 19.1727 6.8577 18.8571 6.8577Z" fill="#FFD033"/>
<path fill-rule="evenodd" clip-rule="evenodd" d="M17.714 9.71565C18.0296 9.71565 18.2854 8.94817 18.2854 8.0014C18.2854 7.05462 18.0296 6.28711 17.714 6.28711C17.3984 6.28711 17.1426 7.05462 17.1426 8.0014C17.1426 8.94817 17.3984 9.71565 17.714 9.71565Z" fill="white"/>
</g>
<path d="M14.2871 11.4288C14.2871 12.5187 15.8481 13.1431 17.7157 13.1431C19.5832 13.1431 21.1443 12.5187 21.1443 11.4288C21.1443 11.1132 20.8884 10.8574 20.5728 10.8574C20.2572 10.8574 20.0013 11.1132 20.0013 11.4288C20.0013 11.4398 19.8628 11.5707 19.5237 11.7064C19.0634 11.8905 18.4149 12.0003 17.7157 12.0003C17.0164 12.0003 16.3679 11.8905 15.9075 11.7064C15.5685 11.5707 15.4299 11.4398 15.4299 11.4288C15.4299 11.1132 15.1741 10.8574 14.8585 10.8574C14.5429 10.8574 14.2871 11.1132 14.2871 11.4288Z" fill="#FFD033"/>
<path d="M0.000875065 -0.28584H-0.771484L-0.185065 0.216805L3.71516 3.55985V4.42427L-0.165193 7.19595L-0.284839 7.28141V7.42845V7.99987V8.51537L0.152303 8.24216L4.65424 5.42844H5.6236L9.49982 8.19717C9.5803 8.25467 9.67682 8.28559 9.77573 8.28559C10.2165 8.28559 10.4193 7.73729 10.0846 7.45048L6.57231 4.43989V3.57548L10.333 0.889263C10.4832 0.781996 10.5723 0.608813 10.5723 0.424269V-0.000125578V-0.515625L10.1351 -0.242411L5.63322 2.5713H4.66387L0.738372 -0.23262L0.663865 -0.28584H0.572304H0.000875065Z" fill="#DB1E36" stroke="white"/>
<path fill-rule="evenodd" clip-rule="evenodd" d="M0 2.85714V5.14286H4V8C4 8.31559 4.25583 8.57143 4.57143 8.57143H5.71429C6.02988 8.57143 6.28571 8.31559 6.28571 8V5.14286H10.2857C10.6013 5.14286 10.8572 4.88702 10.8572 4.57143V3.42857C10.8572 3.11298 10.6013 2.85714 10.2857 2.85714H6.28571V0H4V2.85714H0Z" fill="white"/>
<path fill-rule="evenodd" clip-rule="evenodd" d="M0 3.42857H4.57143V2.85714V0H5.71429V2.85714V3.42857H10.2857V4.57143H5.71429V5.14286V8H4.57143V5.14286V4.57143H0V3.42857Z" fill="#DB1E36"/>
</g>
</g>
</svg>
