<svg width="40" height="41" viewBox="0 0 40 41" fill="none" xmlns="http://www.w3.org/2000/svg">
<g filter="url(#filter0_d_10362_76333)">
<path d="M20.0001 18.1836C19.5422 18.1836 19.0946 18.3194 18.7139 18.5737C18.3332 18.8281 18.0365 19.1897 17.8613 19.6127C17.6861 20.0357 17.6402 20.5012 17.7295 20.9502C17.8189 21.3993 18.0393 21.8118 18.3631 22.1355C18.6869 22.4593 19.0994 22.6798 19.5484 22.7691C19.9975 22.8584 20.463 22.8126 20.886 22.6374C21.309 22.4622 21.6705 22.1654 21.9249 21.7847C22.1793 21.404 22.3151 20.9565 22.3151 20.4986C22.3151 19.8846 22.0712 19.2958 21.637 18.8616C21.2029 18.4275 20.614 18.1836 20.0001 18.1836ZM20.0001 21.8876C19.7253 21.8876 19.4568 21.8061 19.2284 21.6535C18.9999 21.5009 18.8219 21.2839 18.7168 21.0301C18.6117 20.7763 18.5841 20.4971 18.6377 20.2276C18.6913 19.9582 18.8236 19.7107 19.0179 19.5164C19.2121 19.3222 19.4596 19.1899 19.7291 19.1363C19.9985 19.0827 20.2778 19.1102 20.5316 19.2153C20.7854 19.3205 21.0023 19.4985 21.155 19.7269C21.3076 19.9553 21.3891 20.2239 21.3891 20.4986C21.3891 20.867 21.2427 21.2203 20.9822 21.4808C20.7217 21.7413 20.3684 21.8876 20.0001 21.8876ZM13.8267 18.1836C13.3689 18.1836 12.9213 18.3194 12.5406 18.5737C12.1599 18.8281 11.8632 19.1897 11.6879 19.6127C11.5127 20.0357 11.4669 20.5012 11.5562 20.9502C11.6455 21.3993 11.866 21.8118 12.1898 22.1355C12.5135 22.4593 12.926 22.6798 13.3751 22.7691C13.8242 22.8584 14.2896 22.8126 14.7126 22.6374C15.1356 22.4622 15.4972 22.1654 15.7516 21.7847C16.0059 21.404 16.1417 20.9565 16.1417 20.4986C16.1417 19.8846 15.8978 19.2958 15.4637 18.8616C15.0295 18.4275 14.4407 18.1836 13.8267 18.1836ZM13.8267 21.8876C13.552 21.8876 13.2835 21.8061 13.055 21.6535C12.8266 21.5009 12.6486 21.2839 12.5435 21.0301C12.4383 20.7763 12.4108 20.4971 12.4644 20.2276C12.518 19.9582 12.6503 19.7107 12.8445 19.5164C13.0388 19.3222 13.2863 19.1899 13.5557 19.1363C13.8252 19.0827 14.1045 19.1102 14.3583 19.2153C14.6121 19.3205 14.829 19.4985 14.9816 19.7269C15.1343 19.9553 15.2157 20.2239 15.2157 20.4986C15.2157 20.867 15.0694 21.2203 14.8089 21.4808C14.5484 21.7413 14.1951 21.8876 13.8267 21.8876ZM26.1734 18.1836C25.7155 18.1836 25.2679 18.3194 24.8872 18.5737C24.5065 18.8281 24.2098 19.1897 24.0346 19.6127C23.8594 20.0357 23.8135 20.5012 23.9029 20.9502C23.9922 21.3993 24.2127 21.8118 24.5364 22.1355C24.8602 22.4593 25.2727 22.6798 25.7218 22.7691C26.1708 22.8584 26.6363 22.8126 27.0593 22.6374C27.4823 22.4622 27.8439 22.1654 28.0982 21.7847C28.3526 21.404 28.4884 20.9565 28.4884 20.4986C28.4884 19.8846 28.2445 19.2958 27.8103 18.8616C27.3762 18.4275 26.7874 18.1836 26.1734 18.1836ZM26.1734 21.8876C25.8987 21.8876 25.6301 21.8061 25.4017 21.6535C25.1733 21.5009 24.9952 21.2839 24.8901 21.0301C24.785 20.7763 24.7575 20.4971 24.8111 20.2276C24.8647 19.9582 24.997 19.7107 25.1912 19.5164C25.3855 19.3222 25.633 19.1899 25.9024 19.1363C26.1718 19.0827 26.4511 19.1102 26.7049 19.2153C26.9587 19.3205 27.1757 19.4985 27.3283 19.7269C27.4809 19.9553 27.5624 20.2239 27.5624 20.4986C27.5624 20.867 27.416 21.2203 27.1556 21.4808C26.8951 21.7413 26.5418 21.8876 26.1734 21.8876Z" fill="black"/>
</g>
<defs>
<filter id="filter0_d_10362_76333" x="-3" y="-3" width="46" height="47" filterUnits="userSpaceOnUse" color-interpolation-filters="sRGB">
<feFlood flood-opacity="0" result="BackgroundImageFix"/>
<feColorMatrix in="SourceAlpha" type="matrix" values="0 0 0 0 0 0 0 0 0 0 0 0 0 0 0 0 0 0 127 0" result="hardAlpha"/>
<feMorphology radius="1" operator="dilate" in="SourceAlpha" result="effect1_dropShadow_10362_76333"/>
<feOffset/>
<feGaussianBlur stdDeviation="1"/>
<feComposite in2="hardAlpha" operator="out"/>
<feColorMatrix type="matrix" values="0 0 0 0 0 0 0 0 0 0 0 0 0 0 0 0 0 0 0.06 0"/>
<feBlend mode="normal" in2="BackgroundImageFix" result="effect1_dropShadow_10362_76333"/>
<feBlend mode="normal" in="SourceGraphic" in2="effect1_dropShadow_10362_76333" result="shape"/>
</filter>
</defs>
</svg>
