<svg width="32" height="32" viewBox="0 0 32 32" fill="none" xmlns="http://www.w3.org/2000/svg">
<g filter="url(#filter0_d_10362_76321)">
<rect width="32" height="32" rx="16" fill="white"/>
<path d="M15.9992 13.9405C15.5922 13.9405 15.1943 14.0612 14.8559 14.2873C14.5175 14.5134 14.2538 14.8348 14.098 15.2108C13.9423 15.5868 13.9015 16.0006 13.9809 16.3998C14.0603 16.7989 14.2563 17.1656 14.5441 17.4534C14.8319 17.7412 15.1986 17.9371 15.5977 18.0165C15.9969 18.0959 16.4107 18.0552 16.7867 17.8994C17.1627 17.7437 17.4841 17.4799 17.7102 17.1415C17.9363 16.8031 18.057 16.4053 18.057 15.9983C18.057 15.4526 17.8402 14.9291 17.4543 14.5432C17.0683 14.1573 16.5449 13.9405 15.9992 13.9405ZM15.9992 17.233C15.755 17.233 15.5163 17.1606 15.3132 17.0249C15.1102 16.8892 14.952 16.6964 14.8585 16.4708C14.7651 16.2452 14.7406 15.9969 14.7882 15.7574C14.8359 15.5179 14.9535 15.2979 15.1261 15.1253C15.2988 14.9526 15.5188 14.835 15.7583 14.7874C15.9978 14.7397 16.2461 14.7642 16.4717 14.8576C16.6973 14.9511 16.8901 15.1093 17.0258 15.3124C17.1614 15.5154 17.2339 15.7541 17.2339 15.9983C17.2339 16.3258 17.1038 16.6398 16.8722 16.8713C16.6407 17.1029 16.3266 17.233 15.9992 17.233ZM15.9992 12.5687C16.4062 12.5687 16.804 12.448 17.1424 12.2219C17.4808 11.9958 17.7446 11.6744 17.9003 11.2984C18.0561 10.9224 18.0968 10.5086 18.0174 10.1095C17.938 9.71028 17.742 9.34362 17.4543 9.05583C17.1665 8.76805 16.7998 8.57207 16.4006 8.49267C16.0015 8.41327 15.5877 8.45402 15.2117 8.60976C14.8357 8.76551 14.5143 9.02926 14.2882 9.36766C14.0621 9.70606 13.9414 10.1039 13.9414 10.5109C13.9414 11.0567 14.1582 11.5801 14.5441 11.966C14.93 12.3519 15.4534 12.5687 15.9992 12.5687ZM15.9992 9.27624C16.2434 9.27624 16.4821 9.34865 16.6851 9.48432C16.8882 9.61998 17.0464 9.81281 17.1399 10.0384C17.2333 10.264 17.2578 10.5123 17.2101 10.7518C17.1625 10.9913 17.0449 11.2113 16.8722 11.3839C16.6996 11.5566 16.4796 11.6742 16.2401 11.7218C16.0006 11.7695 15.7523 11.745 15.5267 11.6516C15.3011 11.5581 15.1083 11.3999 14.9726 11.1968C14.8369 10.9938 14.7645 10.7551 14.7645 10.5109C14.7645 10.1834 14.8946 9.86941 15.1261 9.63786C15.3577 9.40632 15.6717 9.27624 15.9992 9.27624ZM15.9992 19.4279C15.5922 19.4279 15.1943 19.5486 14.8559 19.7747C14.5175 20.0008 14.2538 20.3222 14.098 20.6982C13.9423 21.0742 13.9015 21.488 13.9809 21.8872C14.0603 22.2863 14.2563 22.653 14.5441 22.9408C14.8319 23.2286 15.1986 23.4246 15.5977 23.504C15.9969 23.5834 16.4107 23.5426 16.7867 23.3869C17.1627 23.2311 17.4841 22.9674 17.7102 22.629C17.9363 22.2906 18.057 21.8927 18.057 21.4857C18.057 20.94 17.8402 20.4166 17.4543 20.0306C17.0683 19.6447 16.5449 19.4279 15.9992 19.4279ZM15.9992 22.7204C15.755 22.7204 15.5163 22.648 15.3132 22.5123C15.1102 22.3766 14.952 22.1838 14.8585 21.9582C14.7651 21.7326 14.7406 21.4843 14.7882 21.2448C14.8359 21.0053 14.9535 20.7853 15.1261 20.6127C15.2988 20.44 15.5188 20.3224 15.7583 20.2748C15.9978 20.2271 16.2461 20.2516 16.4717 20.345C16.6973 20.4385 16.8901 20.5967 17.0258 20.7998C17.1614 21.0028 17.2339 21.2415 17.2339 21.4857C17.2339 21.8132 17.1038 22.1272 16.8722 22.3588C16.6407 22.5903 16.3266 22.7204 15.9992 22.7204Z" fill="black"/>
</g>
<defs>
<filter id="filter0_d_10362_76321" x="-1.77778" y="-1.77778" width="35.5556" height="35.5556" filterUnits="userSpaceOnUse" color-interpolation-filters="sRGB">
<feFlood flood-opacity="0" result="BackgroundImageFix"/>
<feColorMatrix in="SourceAlpha" type="matrix" values="0 0 0 0 0 0 0 0 0 0 0 0 0 0 0 0 0 0 127 0" result="hardAlpha"/>
<feMorphology radius="0.888889" operator="dilate" in="SourceAlpha" result="effect1_dropShadow_10362_76321"/>
<feOffset/>
<feGaussianBlur stdDeviation="0.444444"/>
<feComposite in2="hardAlpha" operator="out"/>
<feColorMatrix type="matrix" values="0 0 0 0 0 0 0 0 0 0 0 0 0 0 0 0 0 0 0.06 0"/>
<feBlend mode="normal" in2="BackgroundImageFix" result="effect1_dropShadow_10362_76321"/>
<feBlend mode="normal" in="SourceGraphic" in2="effect1_dropShadow_10362_76321" result="shape"/>
</filter>
</defs>
</svg>
