<svg width="24" height="24" viewBox="0 0 24 24" fill="none" xmlns="http://www.w3.org/2000/svg">
<path d="M21.75 5.251V16.501C21.7494 16.6078 21.726 16.7132 21.6814 16.8102C21.6368 16.9072 21.5719 16.9936 21.4913 17.0635C20.0588 18.3038 18.6891 18.751 17.3831 18.751C15.6103 18.751 13.9547 17.9316 12.4144 17.1713C9.92531 15.9385 7.76156 14.8707 5.25 16.8544V21.001C5.25 21.1999 5.17098 21.3907 5.03033 21.5313C4.88968 21.672 4.69891 21.751 4.5 21.751C4.30109 21.751 4.11032 21.672 3.96967 21.5313C3.82902 21.3907 3.75 21.1999 3.75 21.001V5.251C3.75072 5.14415 3.77426 5.03869 3.81905 4.94168C3.86383 4.84467 3.92883 4.75835 4.00969 4.6885C7.38469 1.76537 10.4137 3.26256 13.0837 4.5835C15.6562 5.85662 17.8866 6.95725 20.5087 4.6885C20.6171 4.59455 20.7502 4.53364 20.8921 4.51301C21.0341 4.49237 21.1789 4.51288 21.3096 4.57208C21.4402 4.63128 21.5512 4.72671 21.6292 4.84704C21.7073 4.96737 21.7492 5.10757 21.75 5.251Z" fill="#202020"/>
</svg>
