<svg width="58" height="58" viewBox="0 0 58 58" fill="none" xmlns="http://www.w3.org/2000/svg">
<path d="M28.9993 12.0833C28.0379 12.0833 27.1158 12.4653 26.436 13.1451C25.7562 13.8249 25.3743 14.7469 25.3743 15.7083C25.3743 16.6697 25.7562 17.5918 26.436 18.2716C27.1158 18.9514 28.0379 19.3333 28.9993 19.3333C29.9607 19.3333 30.8827 18.9514 31.5626 18.2716C32.2424 17.5918 32.6243 16.6697 32.6243 15.7083C32.6243 14.7469 32.2424 13.8249 31.5626 13.1451C30.8827 12.4653 29.9607 12.0833 28.9993 12.0833ZM20.541 15.7083C20.541 14.5976 20.7597 13.4977 21.1848 12.4715C21.6099 11.4453 22.2329 10.5128 23.0183 9.72739C23.8038 8.94196 24.7362 8.31892 25.7624 7.89385C26.7886 7.46878 27.8885 7.25 28.9993 7.25C30.1101 7.25 31.2099 7.46878 32.2362 7.89385C33.2624 8.31892 34.1948 8.94196 34.9802 9.72739C35.7657 10.5128 36.3887 11.4453 36.8138 12.4715C37.2388 13.4977 37.4576 14.5976 37.4576 15.7083C37.4576 17.9516 36.5665 20.103 34.9802 21.6893C33.394 23.2755 31.2426 24.1667 28.9993 24.1667C26.756 24.1667 24.6046 23.2755 23.0183 21.6893C21.4321 20.103 20.541 17.9516 20.541 15.7083ZM12.0826 19.3333C11.4417 19.3333 10.827 19.5879 10.3738 20.0412C9.92057 20.4944 9.66596 21.1091 9.66596 21.75C9.66596 22.3909 9.92057 23.0056 10.3738 23.4588C10.827 23.9121 11.4417 24.1667 12.0826 24.1667C12.7236 24.1667 13.3383 23.9121 13.7915 23.4588C14.2447 23.0056 14.4993 22.3909 14.4993 21.75C14.4993 21.1091 14.2447 20.4944 13.7915 20.0412C13.3383 19.5879 12.7236 19.3333 12.0826 19.3333ZM4.83263 21.75C4.83263 19.8272 5.59646 17.9831 6.9561 16.6235C8.31574 15.2638 10.1598 14.5 12.0826 14.5C14.0054 14.5 15.8495 15.2638 17.2091 16.6235C18.5688 17.9831 19.3326 19.8272 19.3326 21.75C19.3326 23.6728 18.5688 25.5169 17.2091 26.8765C15.8495 28.2362 14.0054 29 12.0826 29C10.1598 29 8.31574 28.2362 6.9561 26.8765C5.59646 25.5169 4.83263 23.6728 4.83263 21.75ZM43.4993 21.75C43.4993 21.1091 43.7539 20.4944 44.2071 20.0412C44.6603 19.5879 45.275 19.3333 45.916 19.3333C46.5569 19.3333 47.1716 19.5879 47.6248 20.0412C48.078 20.4944 48.3326 21.1091 48.3326 21.75C48.3326 22.3909 48.078 23.0056 47.6248 23.4588C47.1716 23.9121 46.5569 24.1667 45.916 24.1667C45.275 24.1667 44.6603 23.9121 44.2071 23.4588C43.7539 23.0056 43.4993 22.3909 43.4993 21.75ZM45.916 14.5C43.9931 14.5 42.1491 15.2638 40.7894 16.6235C39.4298 17.9831 38.666 19.8272 38.666 21.75C38.666 23.6728 39.4298 25.5169 40.7894 26.8765C42.1491 28.2362 43.9931 29 45.916 29C47.8388 29 49.6828 28.2362 51.0425 26.8765C52.4021 25.5169 53.166 23.6728 53.166 21.75C53.166 19.8272 52.4021 17.9831 51.0425 16.6235C49.6828 15.2638 47.8388 14.5 45.916 14.5ZM19.3326 35.0417C19.3326 31.7067 22.0393 29 25.3743 29H32.6243C35.9593 29 38.666 31.7067 38.666 35.0417V41.0833C38.666 43.6471 37.6475 46.1058 35.8347 47.9187C34.0218 49.7315 31.563 50.75 28.9993 50.75C26.4355 50.75 23.9768 49.7315 22.1639 47.9187C20.3511 46.1058 19.3326 43.6471 19.3326 41.0833V35.0417ZM25.3743 33.8333C25.0538 33.8333 24.7465 33.9606 24.5199 34.1872C24.2933 34.4139 24.166 34.7212 24.166 35.0417V41.0833C24.166 42.3652 24.6752 43.5946 25.5816 44.501C26.488 45.4074 27.7174 45.9167 28.9993 45.9167C30.2812 45.9167 31.5105 45.4074 32.417 44.501C33.3234 43.5946 33.8326 42.3652 33.8326 41.0833V35.0417C33.8326 34.7212 33.7053 34.4139 33.4787 34.1872C33.2521 33.9606 32.9448 33.8333 32.6243 33.8333H25.3743ZM14.4993 35.0417C14.4993 33.6448 14.7603 32.3108 15.2436 31.088L9.29379 32.683C7.74694 33.0976 6.428 34.1095 5.62682 35.4961C4.82564 36.8828 4.60779 38.5308 5.02113 40.078L5.95879 43.5822C6.28744 44.8085 6.85446 45.9581 7.62747 46.9653C8.40047 47.9725 9.36431 48.8176 10.464 49.4522C11.5636 50.0869 12.7775 50.4987 14.0363 50.6641C15.2951 50.8296 16.5742 50.7454 17.8005 50.4165L17.8826 50.3923C16.7677 49.064 15.9 47.5465 15.321 45.9118C14.2529 45.9173 13.2131 45.5688 12.364 44.9209C11.5149 44.2729 10.9044 43.362 10.6278 42.3303L9.69013 38.8262C9.60749 38.5166 9.65119 38.1869 9.81162 37.9095C9.97205 37.6322 10.2361 37.4299 10.5456 37.3472L14.4993 36.2838V35.0417ZM40.1933 50.4117L40.116 50.3972C41.218 49.0777 42.0928 47.5648 42.6776 45.9118C43.7449 45.9162 44.7835 45.5673 45.6316 44.9194C46.4797 44.2715 47.0896 43.3612 47.366 42.3303L48.2988 38.8262C48.3814 38.5166 48.3377 38.1869 48.1773 37.9095C48.0169 37.6322 47.7528 37.4299 47.4433 37.3472L43.4993 36.2887V35.0417C43.4993 33.6448 43.2383 32.3157 42.7598 31.088L48.6951 32.683C50.242 33.0976 51.5609 34.1095 52.3621 35.4961C53.1633 36.8828 53.3811 38.5308 52.9678 40.078L52.0301 43.5822C51.7015 44.8085 51.1345 45.9581 50.3615 46.9653C49.5884 47.9725 48.6246 48.8176 47.525 49.4522C46.4253 50.0869 45.2114 50.4987 43.9526 50.6641C42.6938 50.8296 41.4147 50.7454 40.1885 50.4165" fill="#FFD700"/>
</svg>
