<svg width="58" height="58" viewBox="0 0 58 58" fill="none" xmlns="http://www.w3.org/2000/svg">
<path d="M38.0631 35.0423C37.5824 35.0423 37.1214 35.2333 36.7815 35.5732C36.4416 35.9131 36.2506 36.3741 36.2506 36.8548C36.2506 37.3355 36.4416 37.7965 36.7815 38.1364C37.1214 38.4764 37.5824 38.6673 38.0631 38.6673H44.1048C44.5855 38.6673 45.0465 38.4764 45.3864 38.1364C45.7264 37.7965 45.9173 37.3355 45.9173 36.8548C45.9173 36.3741 45.7264 35.9131 45.3864 35.5732C45.0465 35.2333 44.5855 35.0423 44.1048 35.0423H38.0631ZM4.83398 19.9382C4.83398 17.8551 5.66147 15.8574 7.13442 14.3844C8.60736 12.9115 10.6051 12.084 12.6882 12.084H45.3131C46.3446 12.084 47.3659 12.2871 48.3188 12.6818C49.2717 13.0766 50.1376 13.6551 50.8669 14.3844C51.5962 15.1137 52.1747 15.9796 52.5695 16.9325C52.9642 17.8854 53.1673 18.9067 53.1673 19.9382V38.0631C53.1673 39.0946 52.9642 40.1159 52.5695 41.0688C52.1747 42.0217 51.5962 42.8876 50.8669 43.6169C50.1376 44.3462 49.2717 44.9247 48.3188 45.3195C47.3659 45.7142 46.3446 45.9173 45.3131 45.9173H12.6882C10.6051 45.9173 8.60736 45.0898 7.13442 43.6169C5.66147 42.1439 4.83398 40.1462 4.83398 38.0631V19.9382ZM49.5423 22.959V19.9382C49.5423 18.8165 49.0967 17.7408 48.3036 16.9477C47.5105 16.1546 46.4348 15.709 45.3131 15.709H12.6882C11.5665 15.709 10.4908 16.1546 9.69768 16.9477C8.90456 17.7408 8.45898 18.8165 8.45898 19.9382V22.959H49.5423ZM8.45898 26.584V38.0631C8.45898 40.3976 10.3537 42.2923 12.6882 42.2923H45.3131C46.4348 42.2923 47.5105 41.8467 48.3036 41.0536C49.0967 40.2605 49.5423 39.1848 49.5423 38.0631V26.584H8.45898Z" fill="#FFD700"/>
</svg>
