<svg width="84" height="70" viewBox="0 0 84 70" fill="none" xmlns="http://www.w3.org/2000/svg">
<g clip-path="url(#clip0_9322_75707)">
<rect width="84" height="70" rx="6" fill="#FFD700"/>
<path d="M29.5197 45.6479V47.8873V71V45.6479ZM29.5197 50.4225C28.8268 50.4225 28.2337 50.1743 27.7404 49.6776C27.2468 49.1813 27 48.5845 27 47.8873V22.5352C27 21.838 27.2468 21.2411 27.7404 20.7445C28.2337 20.2482 28.8268 20 29.5197 20H54.7165C55.4094 20 56.0027 20.2482 56.4963 20.7445C56.9895 21.2411 57.2362 21.838 57.2362 22.5352V28.1972H54.7165V22.5352H29.5197V47.8873H54.7165V42.2676H57.2362V47.8873C57.2362 48.5845 56.9895 49.1813 56.4963 49.6776C56.0027 50.1743 55.4094 50.4225 54.7165 50.4225H29.5197ZM44.5538 43.1127C43.6994 43.1127 42.9678 42.8107 42.3592 42.2068C41.7505 41.6025 41.4462 40.8764 41.4462 40.0282V30.4366C41.4462 29.5884 41.7505 28.8623 42.3592 28.258C42.9678 27.6541 43.6994 27.3521 44.5538 27.3521H55.8924C56.7472 27.3521 57.4787 27.6541 58.087 28.258C58.6957 28.8623 59 29.5884 59 30.4366V40.0282C59 40.8764 58.6957 41.6025 58.087 42.2068C57.4787 42.8107 56.7472 43.1127 55.8924 43.1127H44.5538ZM56.4803 40.5775V29.8873H43.9659V40.5775H56.4803ZM49.3513 37.9155C50.1005 37.9155 50.734 37.6485 51.252 37.1144C51.7699 36.5803 52.0289 35.9319 52.0289 35.169C52.0289 34.4296 51.7629 33.801 51.231 33.2832C50.6991 32.7658 50.0691 32.507 49.3412 32.507C48.6133 32.507 47.9833 32.7658 47.4514 33.2832C46.9195 33.801 46.6535 34.4296 46.6535 35.169C46.6535 35.9319 46.9158 36.5803 47.4405 37.1144C47.9649 37.6485 48.6018 37.9155 49.3513 37.9155Z" fill="#202020"/>
</g>
<defs>
<clipPath id="clip0_9322_75707">
<rect width="84" height="70" rx="6" fill="white"/>
</clipPath>
</defs>
</svg>
