<svg width="44" height="44" viewBox="0 0 44 44" fill="none" xmlns="http://www.w3.org/2000/svg">
<rect width="44" height="44" rx="22" fill="#FFD700"/>
<path d="M30.2476 22.2001C30.2514 22.0651 30.2514 21.9301 30.2476 21.7951L31.6464 20.0476C31.7197 19.9558 31.7705 19.8482 31.7946 19.7332C31.8187 19.6182 31.8154 19.4992 31.7851 19.3857C31.5554 18.5239 31.2124 17.6964 30.7651 16.9248C30.7065 16.8238 30.6251 16.738 30.5275 16.674C30.4298 16.61 30.3186 16.5698 30.2026 16.5564L27.9789 16.3089C27.8864 16.2114 27.7926 16.1176 27.6976 16.0276L27.4351 13.7982C27.4216 13.6822 27.3812 13.5709 27.317 13.4732C27.2529 13.3756 27.1669 13.2942 27.0657 13.2357C26.2942 12.7888 25.4666 12.4464 24.6048 12.2176C24.4913 12.1873 24.3723 12.184 24.2573 12.2081C24.1424 12.2322 24.0347 12.283 23.9429 12.3564L22.2001 13.7476C22.0651 13.7476 21.9301 13.7476 21.7951 13.7476L20.0476 12.3517C19.9558 12.2783 19.8482 12.2276 19.7332 12.2035C19.6182 12.1794 19.4992 12.1826 19.3857 12.2129C18.5239 12.4426 17.6964 12.7856 16.9248 13.2329C16.8238 13.2915 16.738 13.3729 16.674 13.4706C16.61 13.5682 16.5698 13.6794 16.5564 13.7954L16.3089 16.0229C16.2114 16.116 16.1176 16.2098 16.0276 16.3042L13.7982 16.5601C13.6822 16.5736 13.5709 16.614 13.4732 16.6782C13.3756 16.7423 13.2942 16.8284 13.2357 16.9295C12.7889 17.7012 12.4462 18.5287 12.2167 19.3904C12.1865 19.504 12.1834 19.623 12.2076 19.738C12.2319 19.853 12.2828 19.9606 12.3564 20.0523L13.7476 21.7951C13.7476 21.9301 13.7476 22.0651 13.7476 22.2001L12.3517 23.9476C12.2783 24.0394 12.2276 24.147 12.2035 24.262C12.1794 24.377 12.1826 24.496 12.2129 24.6095C12.4426 25.4713 12.7856 26.2988 13.2329 27.0704C13.2915 27.1714 13.3729 27.2572 13.4706 27.3212C13.5682 27.3852 13.6794 27.4255 13.7954 27.4389L16.0192 27.6864C16.1123 27.7839 16.206 27.8776 16.3004 27.9676L16.5601 30.197C16.5736 30.313 16.614 30.4243 16.6782 30.522C16.7423 30.6196 16.8284 30.701 16.9295 30.7595C17.7012 31.2063 18.5287 31.549 19.3904 31.7785C19.504 31.8087 19.623 31.8118 19.738 31.7876C19.853 31.7633 19.9606 31.7124 20.0523 31.6389L21.7951 30.2476C21.9301 30.2514 22.0651 30.2514 22.2001 30.2476L23.9476 31.6464C24.0394 31.7197 24.147 31.7705 24.262 31.7946C24.377 31.8187 24.496 31.8154 24.6095 31.7851C25.4714 31.5558 26.299 31.2128 27.0704 30.7651C27.1714 30.7065 27.2572 30.6251 27.3212 30.5275C27.3852 30.4298 27.4255 30.3186 27.4389 30.2026L27.6864 27.9789C27.7839 27.8864 27.8776 27.7926 27.9676 27.6976L30.197 27.4351C30.313 27.4216 30.4243 27.3812 30.522 27.317C30.6196 27.2529 30.701 27.1669 30.7595 27.0657C31.2063 26.294 31.549 25.4665 31.7785 24.6048C31.8087 24.4912 31.8118 24.3722 31.7876 24.2572C31.7633 24.1422 31.7124 24.0346 31.6389 23.9429L30.2476 22.2001ZM21.9976 25.7476C21.2559 25.7476 20.5309 25.5277 19.9142 25.1156C19.2975 24.7036 18.8169 24.1179 18.5331 23.4327C18.2492 22.7474 18.175 21.9934 18.3197 21.266C18.4644 20.5386 18.8215 19.8704 19.346 19.346C19.8704 18.8215 20.5386 18.4644 21.266 18.3197C21.9934 18.175 22.7474 18.2492 23.4327 18.5331C24.1179 18.8169 24.7036 19.2975 25.1156 19.9142C25.5277 20.5309 25.7476 21.2559 25.7476 21.9976C25.7476 22.9922 25.3525 23.946 24.6493 24.6493C23.946 25.3525 22.9922 25.7476 21.9976 25.7476Z" fill="black"/>
</svg>
