<svg width="20" height="19" viewBox="0 0 20 19" fill="none" xmlns="http://www.w3.org/2000/svg">
<path d="M19.0277 3.9693C18.9631 3.89207 18.8824 3.82995 18.7912 3.78734C18.7001 3.74472 18.6006 3.72264 18.5 3.72266H4.63656L4.11406 0.849766C4.08528 0.691355 4.00182 0.548069 3.87822 0.444889C3.75463 0.341709 3.59874 0.28518 3.43773 0.285156H1.3125C1.13016 0.285156 0.955295 0.357589 0.826364 0.48652C0.697433 0.615452 0.625 0.79032 0.625 0.972656C0.625 1.15499 0.697433 1.32986 0.826364 1.45879C0.955295 1.58772 1.13016 1.66016 1.3125 1.66016H2.85938L5.05594 13.7163C5.12064 14.0739 5.27865 14.408 5.51398 14.6848C5.18918 14.9882 4.95475 15.3756 4.83668 15.8041C4.7186 16.2326 4.72151 16.6854 4.84507 17.1123C4.96863 17.5392 5.20802 17.9236 5.53669 18.2228C5.86537 18.522 6.27048 18.7243 6.7071 18.8073C7.14373 18.8903 7.59482 18.8507 8.01034 18.693C8.42586 18.5353 8.78958 18.2656 9.06118 17.9137C9.33277 17.5619 9.50162 17.1418 9.549 16.6999C9.59638 16.258 9.52044 15.8115 9.32961 15.4102H13.2329C13.0791 15.7322 12.9995 16.0846 13 16.4414C13 16.9173 13.1411 17.3825 13.4055 17.7782C13.6699 18.174 14.0457 18.4824 14.4854 18.6645C14.9251 18.8466 15.4089 18.8943 15.8757 18.8014C16.3425 18.7086 16.7712 18.4794 17.1077 18.1429C17.4442 17.8064 17.6734 17.3776 17.7663 16.9108C17.8591 16.4441 17.8115 15.9603 17.6293 15.5206C17.4472 15.0809 17.1388 14.7051 16.7431 14.4407C16.3474 14.1763 15.8822 14.0352 15.4062 14.0352H7.08492C6.92392 14.0351 6.76803 13.9786 6.64443 13.8754C6.52084 13.7722 6.43737 13.629 6.40859 13.4705L6.13617 11.9727H16.1049C16.5879 11.9726 17.0556 11.803 17.4264 11.4935C17.7972 11.1839 18.0476 10.7541 18.1339 10.2788L19.1789 4.53305C19.1966 4.43374 19.1922 4.33175 19.1661 4.23432C19.1399 4.1369 19.0927 4.04641 19.0277 3.9693ZM8.1875 16.4414C8.1875 16.6454 8.12702 16.8447 8.0137 17.0143C7.90039 17.1839 7.73933 17.3161 7.55089 17.3942C7.36246 17.4722 7.15511 17.4926 6.95506 17.4528C6.75502 17.4131 6.57127 17.3148 6.42705 17.1706C6.28282 17.0264 6.18461 16.8426 6.14482 16.6426C6.10502 16.4425 6.12545 16.2352 6.2035 16.0468C6.28155 15.8583 6.41373 15.6973 6.58332 15.584C6.75291 15.4706 6.95229 15.4102 7.15625 15.4102C7.42975 15.4102 7.69206 15.5188 7.88545 15.7122C8.07885 15.9056 8.1875 16.1679 8.1875 16.4414ZM16.4375 16.4414C16.4375 16.6454 16.377 16.8447 16.2637 17.0143C16.1504 17.1839 15.9893 17.3161 15.8009 17.3942C15.6125 17.4722 15.4051 17.4926 15.2051 17.4528C15.005 17.4131 14.8213 17.3148 14.677 17.1706C14.5328 17.0264 14.4346 16.8426 14.3948 16.6426C14.355 16.4425 14.3754 16.2352 14.4535 16.0468C14.5316 15.8583 14.6637 15.6973 14.8333 15.584C15.0029 15.4706 15.2023 15.4102 15.4062 15.4102C15.6798 15.4102 15.9421 15.5188 16.1355 15.7122C16.3289 15.9056 16.4375 16.1679 16.4375 16.4414Z" fill="#FFD700"/>
</svg>
