<svg width="44" height="53" viewBox="0 0 44 53" fill="none" xmlns="http://www.w3.org/2000/svg">
<path fill-rule="evenodd" clip-rule="evenodd" d="M14.5 1.45345e-08C15.8714 -7.51858e-05 17.2272 0.29166 18.4772 0.855827C19.7272 1.41999 20.8428 2.24368 21.75 3.27217C22.6572 2.24368 23.7728 1.41999 25.0228 0.855827C26.2728 0.29166 27.6286 -7.51858e-05 29 1.45345e-08H30.2083C31.1697 1.45345e-08 32.0918 0.381919 32.7716 1.06174C33.4514 1.74156 33.8333 2.66359 33.8333 3.625V4.83333C33.8333 6.59508 33.3621 8.24567 32.5404 9.66667H38.6667C39.9485 9.66667 41.1779 10.1759 42.0844 11.0823C42.9908 11.9887 43.5 13.2181 43.5 14.5V21.75C43.5 22.5984 43.2766 23.4319 42.8524 24.1666C42.4282 24.9013 41.8181 25.5115 41.0833 25.9357V38.6667C41.0833 40.5895 40.3195 42.4336 38.9599 43.7932C37.6002 45.1528 35.7562 45.9167 33.8333 45.9167H9.66667C7.74385 45.9167 5.89978 45.1528 4.54014 43.7932C3.1805 42.4336 2.41667 40.5895 2.41667 38.6667V25.9357C1.68193 25.5115 1.07179 24.9013 0.647575 24.1666C0.223362 23.4319 2.15529e-05 22.5984 0 21.75V14.5C0 13.2181 0.509225 11.9887 1.41565 11.0823C2.32208 10.1759 3.55145 9.66667 4.83333 9.66667H10.9596C10.1119 8.19694 9.66601 6.52999 9.66667 4.83333V3.625C9.66667 2.66359 10.0486 1.74156 10.7284 1.06174C11.4082 0.381919 12.3303 1.45345e-08 13.2917 1.45345e-08H14.5ZM36.25 26.5833H24.1667V41.0833H33.8333L34.1161 41.0664C34.6555 41.0028 35.1578 40.7593 35.5419 40.3752C35.926 39.9911 36.1695 39.4889 36.2331 38.9494L36.25 38.6667V26.5833ZM19.3333 26.5833H7.25V38.6667C7.25008 39.2586 7.46739 39.8299 7.86073 40.2722C8.25406 40.7146 8.79606 40.9972 9.38392 41.0664L9.66667 41.0833H19.3333V26.5833ZM38.6667 14.5H24.1667V21.75H38.6667V14.5ZM19.3333 14.5H4.83333V21.75H19.3333V14.5ZM14.5 4.83333C14.5 6.11521 15.0092 7.34459 15.9157 8.25102C16.8221 9.15744 18.0515 9.66667 19.3333 9.66667C19.3333 8.38479 18.8241 7.15541 17.9177 6.24898C17.0113 5.34256 15.7819 4.83333 14.5 4.83333ZM29 4.83333C27.7181 4.83333 26.4887 5.34256 25.5823 6.24898C24.6759 7.15541 24.1667 8.38479 24.1667 9.66667C25.4485 9.66667 26.6779 9.15744 27.5843 8.25102C28.4908 7.34459 29 6.11521 29 4.83333Z" fill="#FFD700"/>
</svg>
