<svg width="12" height="12" viewBox="0 0 12 12" fill="none" xmlns="http://www.w3.org/2000/svg">
<path fill-rule="evenodd" clip-rule="evenodd" d="M6.10916 7.5541C6.019 7.64424 5.89674 7.69487 5.76925 7.69487C5.64177 7.69487 5.51951 7.64424 5.42935 7.5541L2.70964 4.83439C2.66372 4.79004 2.62709 4.73699 2.6019 4.67834C2.5767 4.61968 2.56344 4.5566 2.56288 4.49276C2.56233 4.42892 2.57449 4.36562 2.59867 4.30653C2.62284 4.24745 2.65854 4.19377 2.70368 4.14863C2.74882 4.10349 2.8025 4.06779 2.86158 4.04361C2.92067 4.01944 2.98398 4.00728 3.04781 4.00783C3.11165 4.00839 3.17474 4.02165 3.23339 4.04684C3.29205 4.07204 3.3451 4.10867 3.38945 4.15459L5.76925 6.53439L8.14906 4.15459C8.23974 4.06701 8.36118 4.01855 8.48724 4.01965C8.61329 4.02074 8.73388 4.0713 8.82301 4.16044C8.91215 4.24958 8.96271 4.37016 8.96381 4.49622C8.96491 4.62228 8.91645 4.74372 8.82887 4.83439L6.10916 7.5541Z" fill="#3A3838"/>
</svg>
