<svg width="21" height="20" viewBox="0 0 21 20" fill="none" xmlns="http://www.w3.org/2000/svg">
<path d="M10.4991 4.95312C10.7643 4.95312 11.0187 5.05848 11.2062 5.24602C11.3938 5.43355 11.4991 5.68791 11.4991 5.95312V8.99813H14.5451C14.8103 8.99813 15.0647 9.10348 15.2522 9.29102C15.4398 9.47855 15.5451 9.73291 15.5451 9.99813C15.5451 10.2633 15.4398 10.5177 15.2522 10.7052C15.0647 10.8928 14.8103 10.9981 14.5451 10.9981H11.4991V14.0441C11.4991 14.3093 11.3938 14.5637 11.2062 14.7512C11.0187 14.9388 10.7643 15.0441 10.4991 15.0441C10.2339 15.0441 9.97955 14.9388 9.79202 14.7512C9.60448 14.5637 9.49913 14.3093 9.49913 14.0441V10.9981H6.45312C6.18791 10.9981 5.93355 10.8928 5.74602 10.7052C5.55848 10.5177 5.45312 10.2633 5.45312 9.99813C5.45312 9.73291 5.55848 9.47855 5.74602 9.29102C5.93355 9.10348 6.18791 8.99813 6.45312 8.99813H9.49913V5.95312C9.49913 5.68791 9.60448 5.43355 9.79202 5.24602C9.97955 5.05848 10.2339 4.95312 10.4991 4.95312Z" fill="#343A40"/>
<path fill-rule="evenodd" clip-rule="evenodd" d="M10.5 0C4.977 0 0.5 4.477 0.5 10C0.5 15.523 4.977 20 10.5 20C16.023 20 20.5 15.523 20.5 10C20.5 4.477 16.023 0 10.5 0ZM2.5 10C2.5 7.87827 3.34285 5.84344 4.84315 4.34315C6.34344 2.84285 8.37827 2 10.5 2C12.6217 2 14.6566 2.84285 16.1569 4.34315C17.6571 5.84344 18.5 7.87827 18.5 10C18.5 12.1217 17.6571 14.1566 16.1569 15.6569C14.6566 17.1571 12.6217 18 10.5 18C8.37827 18 6.34344 17.1571 4.84315 15.6569C3.34285 14.1566 2.5 12.1217 2.5 10Z" fill="#343A40"/>
</svg>
