<svg width="18" height="20" viewBox="0 0 18 20" fill="none" xmlns="http://www.w3.org/2000/svg">
<path d="M13 0V4M5 0V4M18 10C18 6.229 18 4.343 16.828 3.172C15.656 2.001 13.771 2 10 2H8C4.229 2 2.343 2 1.172 3.172C0.000999928 4.344 0 6.229 0 10V12C0 15.771 -1.19209e-07 17.657 1.172 18.828C2.344 19.999 4.229 20 8 20M0 8H18" stroke="#FFD700" stroke-width="1.5" stroke-linecap="round" stroke-linejoin="round"/>
<path d="M15.267 16.701L14 16V14.267M18 16C18 17.0609 17.5786 18.0783 16.8284 18.8284C16.0783 19.5786 15.0609 20 14 20C12.9391 20 11.9217 19.5786 11.1716 18.8284C10.4214 18.0783 10 17.0609 10 16C10 14.9391 10.4214 13.9217 11.1716 13.1716C11.9217 12.4214 12.9391 12 14 12C15.0609 12 16.0783 12.4214 16.8284 13.1716C17.5786 13.9217 18 14.9391 18 16Z" stroke="#FFD700" stroke-width="1.5" stroke-linecap="round" stroke-linejoin="round"/>
</svg>
