<svg width="44" height="44" viewBox="0 0 44 44" fill="none" xmlns="http://www.w3.org/2000/svg">
<rect x="1" y="1" width="42" height="42" rx="21" stroke="#008000" stroke-width="2"/>
<path d="M20.875 15.25H19.375V11.5C19.375 11.3011 19.454 11.1103 19.5947 10.9697C19.7353 10.829 19.9261 10.75 20.125 10.75C20.3239 10.75 20.5147 10.829 20.6553 10.9697C20.796 11.1103 20.875 11.3011 20.875 11.5V15.25ZM26.875 21.5894V16.75C26.875 16.3522 26.717 15.9706 26.4357 15.6893C26.1544 15.408 25.7728 15.25 25.375 15.25H20.875V20.9397L22.5944 19.2194C22.6641 19.1497 22.7468 19.0944 22.8378 19.0567C22.9289 19.019 23.0265 18.9996 23.125 18.9996C23.2235 18.9996 23.3211 19.019 23.4122 19.0567C23.5032 19.0944 23.5859 19.1497 23.6556 19.2194C23.7253 19.2891 23.7806 19.3718 23.8183 19.4628C23.856 19.5539 23.8754 19.6515 23.8754 19.75C23.8754 19.8485 23.856 19.9461 23.8183 20.0372C23.7806 20.1282 23.7253 20.2109 23.6556 20.2806L20.6556 23.2806C20.586 23.3504 20.5033 23.4057 20.4122 23.4434C20.3212 23.4812 20.2236 23.5006 20.125 23.5006C20.0264 23.5006 19.9288 23.4812 19.8378 23.4434C19.7467 23.4057 19.664 23.3504 19.5944 23.2806L16.5944 20.2806C16.4536 20.1399 16.3746 19.949 16.3746 19.75C16.3746 19.551 16.4536 19.3601 16.5944 19.2194C16.7351 19.0786 16.926 18.9996 17.125 18.9996C17.324 18.9996 17.5149 19.0786 17.6556 19.2194L19.375 20.9397V15.25H14.875C14.4772 15.25 14.0956 15.408 13.8143 15.6893C13.533 15.9706 13.375 16.3522 13.375 16.75V28.75C13.375 28.9489 13.454 29.1397 13.5947 29.2803C13.7353 29.421 13.9261 29.5 14.125 29.5H21.1281C21.1581 29.5628 21.1909 29.6256 21.2266 29.6875L21.2491 29.7231L23.3359 32.9106C23.4448 33.0771 23.6154 33.1935 23.8101 33.2342C24.0048 33.2749 24.2078 33.2366 24.3742 33.1277C24.5407 33.0188 24.6571 32.8482 24.6978 32.6535C24.7385 32.4587 24.7002 32.2558 24.5912 32.0894L22.5166 28.9216C22.3695 28.6619 22.3316 28.3544 22.4113 28.0667C22.4909 27.7791 22.6815 27.5349 22.9412 27.3878C23.201 27.2407 23.5084 27.2029 23.7961 27.2825C24.0837 27.3622 24.3279 27.5528 24.475 27.8125C24.4816 27.8247 24.4891 27.8369 24.4966 27.8481L25.4978 29.3772C25.5863 29.5122 25.716 29.615 25.8676 29.6704C26.0192 29.7258 26.1846 29.7308 26.3393 29.6847C26.494 29.6385 26.6296 29.5438 26.7262 29.4144C26.8227 29.285 26.8749 29.128 26.875 28.9666V23.5C27.5819 24.1544 28.1465 24.9473 28.5336 25.8294C28.9207 26.7115 29.122 27.6639 29.125 28.6272V32.5C29.125 32.6989 29.204 32.8897 29.3447 33.0303C29.4853 33.171 29.6761 33.25 29.875 33.25C30.0739 33.25 30.2647 33.171 30.4053 33.0303C30.546 32.8897 30.625 32.6989 30.625 32.5V28.6234C30.6208 27.2341 30.2768 25.8669 29.6232 24.6409C28.9696 23.4149 28.0262 22.3673 26.875 21.5894Z" fill="black"/>
</svg>
