<svg width="58" height="58" viewBox="0 0 58 58" fill="none" xmlns="http://www.w3.org/2000/svg">
<path d="M48.3333 43.4994C50.9917 43.4994 53.1667 41.3244 53.1667 38.666V14.4993C53.1667 11.841 50.9917 9.66602 48.3333 9.66602H9.66667C7.00833 9.66602 4.83333 11.841 4.83333 14.4993V38.666C4.83333 41.3244 7.00833 43.4994 9.66667 43.4994H2.41667C1.0875 43.4994 0 44.5868 0 45.916C0 47.2452 1.0875 48.3327 2.41667 48.3327H55.5833C56.9125 48.3327 58 47.2452 58 45.916C58 44.5868 56.9125 43.4994 55.5833 43.4994H48.3333ZM12.0833 14.4993H45.9167C47.2458 14.4993 48.3333 15.5868 48.3333 16.916V36.2493C48.3333 37.5785 47.2458 38.666 45.9167 38.666H12.0833C10.7542 38.666 9.66667 37.5785 9.66667 36.2493V16.916C9.66667 15.5868 10.7542 14.4993 12.0833 14.4993Z" fill="#FFD700"/>
</svg>
