<svg width="24" height="24" viewBox="0 0 24 24" fill="none" xmlns="http://www.w3.org/2000/svg">
<rect width="24" height="24" rx="12" fill="#FFF7F7"/>
<path d="M12 6C15.3138 6 18 8.6862 18 12C18 15.3138 15.3138 18 12 18C8.6862 18 6 15.3138 6 12C6 8.6862 8.6862 6 12 6ZM12 7.2C10.727 7.2 9.50606 7.70571 8.60589 8.60589C7.70571 9.50606 7.2 10.727 7.2 12C7.2 13.273 7.70571 14.4939 8.60589 15.3941C9.50606 16.2943 10.727 16.8 12 16.8C13.273 16.8 14.4939 16.2943 15.3941 15.3941C16.2943 14.4939 16.8 13.273 16.8 12C16.8 10.727 16.2943 9.50606 15.3941 8.60589C14.4939 7.70571 13.273 7.2 12 7.2ZM12 8.4C12.147 8.40002 12.2888 8.45397 12.3986 8.55163C12.5084 8.64928 12.5786 8.78385 12.5958 8.9298L12.6 9V11.7516L14.2242 13.3758C14.3318 13.4838 14.3943 13.6287 14.3989 13.781C14.4036 13.9334 14.3501 14.0818 14.2493 14.1962C14.1484 14.3105 14.0079 14.3822 13.8561 14.3966C13.7044 14.4111 13.5528 14.3672 13.4322 14.274L13.3758 14.2242L11.5758 12.4242C11.4825 12.3309 11.4227 12.2094 11.4054 12.0786L11.4 12V9C11.4 8.84087 11.4632 8.68826 11.5757 8.57574C11.6883 8.46321 11.8409 8.4 12 8.4Z" fill="#EFAB00"/>
</svg>
