<svg width="24" height="24" viewBox="0 0 24 24" fill="none" xmlns="http://www.w3.org/2000/svg">
<rect width="24" height="24" rx="12" fill="#F5FFFF"/>
<path fill-rule="evenodd" clip-rule="evenodd" d="M8.95 12.8969C8.95 12.7775 8.99741 12.6631 9.0818 12.5787C9.16619 12.4943 9.28065 12.4469 9.4 12.4469H13.6C13.7193 12.4469 13.8338 12.4943 13.9182 12.5787C14.0026 12.6631 14.05 12.7775 14.05 12.8969C14.05 13.0162 14.0026 13.1307 13.9182 13.2151C13.8338 13.2995 13.7193 13.3469 13.6 13.3469H9.4C9.28065 13.3469 9.16619 13.2995 9.0818 13.2151C8.99741 13.1307 8.95 13.0162 8.95 12.8969ZM8.95 14.6969C8.95 14.5775 8.99741 14.4631 9.0818 14.3787C9.16619 14.2943 9.28065 14.2469 9.4 14.2469H13.6C13.7193 14.2469 13.8338 14.2943 13.9182 14.3787C14.0026 14.4631 14.05 14.5775 14.05 14.6969C14.05 14.8162 14.0026 14.9307 13.9182 15.0151C13.8338 15.0995 13.7193 15.1469 13.6 15.1469H9.4C9.28065 15.1469 9.16619 15.0995 9.0818 15.0151C8.99741 14.9307 8.95 14.8162 8.95 14.6969Z" fill="#FFD700"/>
<path fill-rule="evenodd" clip-rule="evenodd" d="M7 7.49687C7 6.83567 7.5388 6.29688 8.2 6.29688H12.214C12.5512 6.29688 12.8692 6.43968 13.093 6.67548L13.0966 6.67967L15.6838 9.50087C15.8992 9.73067 16 10.0313 16 10.3169V16.4969C16 17.1581 15.4612 17.6969 14.8 17.6969H8.2C7.5388 17.6969 7 17.1581 7 16.4969V7.49687ZM12.2134 7.49687H8.2V16.4969H14.8V10.3121L12.2224 7.50107L12.2206 7.50047L12.2134 7.49687Z" fill="#FFD700"/>
<path fill-rule="evenodd" clip-rule="evenodd" d="M12.214 6.29688C12.3731 6.29688 12.5257 6.36009 12.6383 6.47261C12.7508 6.58513 12.814 6.73775 12.814 6.89687V9.71687H15.4C15.4788 9.71687 15.5568 9.73239 15.6296 9.76255C15.7024 9.7927 15.7685 9.8369 15.8243 9.89261C15.88 9.94833 15.9242 10.0145 15.9543 10.0873C15.9845 10.1601 16 10.2381 16 10.3169C16 10.3957 15.9845 10.4737 15.9543 10.5465C15.9242 10.6193 15.88 10.6854 15.8243 10.7411C15.7685 10.7969 15.7024 10.841 15.6296 10.8712C15.5568 10.9014 15.4788 10.9169 15.4 10.9169H12.214C12.0549 10.9169 11.9023 10.8537 11.7897 10.7411C11.6772 10.6286 11.614 10.476 11.614 10.3169V6.89687C11.614 6.73775 11.6772 6.58513 11.7897 6.47261C11.9023 6.36009 12.0549 6.29688 12.214 6.29688Z" fill="#FFD700"/>
</svg>
