<svg width="30" height="30" viewBox="0 0 30 30" fill="none" xmlns="http://www.w3.org/2000/svg">
<path d="M13.3887 18.0427V21.9069C13.3887 22.2518 13.5056 22.541 13.7392 22.7747C13.9729 23.0084 14.2618 23.1248 14.6058 23.124C14.9498 23.1232 15.2391 23.0063 15.4736 22.7735C15.7081 22.5406 15.8245 22.2518 15.8229 21.9069V18.0427L16.9183 19.1381C17.04 19.2598 17.1771 19.351 17.3296 19.4119C17.4822 19.4727 17.6343 19.4983 17.786 19.4886C17.9378 19.4788 18.0846 19.4431 18.2266 19.3815C18.3686 19.3198 18.5005 19.2285 18.6222 19.1076C18.8453 18.8642 18.9621 18.5802 18.9727 18.2557C18.9832 17.9311 18.8664 17.6471 18.6222 17.4037L15.4578 14.2393C15.336 14.1176 15.2042 14.0316 15.0622 13.9813C14.9202 13.931 14.7681 13.9054 14.6058 13.9046C14.4435 13.9038 14.2914 13.9293 14.1494 13.9813C14.0074 14.0332 13.8756 14.1192 13.7538 14.2393L10.5894 17.4037C10.346 17.6471 10.2296 17.9311 10.2401 18.2557C10.2507 18.5802 10.3773 18.8642 10.6199 19.1076C10.8633 19.3308 11.1473 19.4476 11.4718 19.4581C11.7964 19.4687 12.0804 19.3519 12.3238 19.1076L13.3887 18.0427ZM7.30331 26.7752C6.63391 26.7752 6.06107 26.5371 5.58478 26.0608C5.1085 25.5845 4.86995 25.0113 4.86914 24.3411V4.86776C4.86914 4.19836 5.10769 3.62552 5.58478 3.14924C6.06188 2.67295 6.63472 2.43441 7.30331 2.43359H16.0359C16.3604 2.43359 16.67 2.49445 16.9645 2.61616C17.259 2.73786 17.5175 2.91028 17.7398 3.13342L23.6426 9.03627C23.8658 9.2594 24.0382 9.51823 24.1599 9.81276C24.2816 10.1073 24.3425 10.4164 24.3425 10.7402V24.3411C24.3425 25.0105 24.1043 25.5837 23.628 26.0608C23.1517 26.5379 22.5785 26.7761 21.9083 26.7752H7.30331ZM15.8229 9.73609C15.8229 10.0809 15.9397 10.3702 16.1734 10.6039C16.4071 10.8375 16.6959 10.954 17.04 10.9532H21.9083L15.8229 4.86776V9.73609Z" fill="#FFD700"/>
</svg>
