<svg width="32" height="32" viewBox="0 0 32 32" fill="none" xmlns="http://www.w3.org/2000/svg">
<path d="M27.199 11.9461L15.197 23.9481C15.0915 24.0535 14.9485 24.1127 14.7994 24.1127C14.6503 24.1127 14.5074 24.0535 14.4019 23.9481L9.15099 18.6973C9.05162 18.5906 8.99752 18.4495 9.00009 18.3038C9.00266 18.158 9.0617 18.019 9.16478 17.9159C9.26786 17.8128 9.40692 17.7538 9.55267 17.7512C9.69842 17.7486 9.83948 17.8027 9.94613 17.9021L14.7994 22.7545L26.4039 11.151C26.5105 11.0516 26.6516 10.9975 26.7973 11.0001C26.9431 11.0027 27.0821 11.0617 27.1852 11.1648C27.2883 11.2679 27.3473 11.4069 27.3499 11.5527C27.3525 11.6984 27.2984 11.8395 27.199 11.9461Z" fill="black"/>
</svg>
