<svg width="16" height="16" viewBox="0 0 16 16" fill="none" xmlns="http://www.w3.org/2000/svg">
<path d="M5.76922 3.2055C5.5992 3.2055 5.43616 3.27303 5.31594 3.39325C5.19573 3.51346 5.12819 3.67651 5.12819 3.84652C5.12819 4.01653 5.19573 4.17958 5.31594 4.2998C5.43616 4.42001 5.5992 4.48755 5.76922 4.48755C5.93923 4.48755 6.10227 4.42001 6.22249 4.2998C6.3427 4.17958 6.41024 4.01653 6.41024 3.84652C6.41024 3.67651 6.3427 3.51346 6.22249 3.39325C6.10227 3.27303 5.93923 3.2055 5.76922 3.2055ZM3.95511 3.2055C4.08755 2.83016 4.33315 2.50513 4.65806 2.27523C4.98297 2.04533 5.37119 1.92188 5.76922 1.92188C6.16724 1.92188 6.55546 2.04533 6.88037 2.27523C7.20528 2.50513 7.45088 2.83016 7.58332 3.2055H12.1795C12.3495 3.2055 12.5125 3.27303 12.6327 3.39325C12.753 3.51346 12.8205 3.67651 12.8205 3.84652C12.8205 4.01653 12.753 4.17958 12.6327 4.2998C12.5125 4.42001 12.3495 4.48755 12.1795 4.48755H7.58332C7.45088 4.86289 7.20528 5.18791 6.88037 5.41781C6.55546 5.64771 6.16724 5.77117 5.76922 5.77117C5.37119 5.77117 4.98297 5.64771 4.65806 5.41781C4.33315 5.18791 4.08755 4.86289 3.95511 4.48755H3.20511C3.0351 4.48755 2.87205 4.42001 2.75184 4.2998C2.63162 4.17958 2.56409 4.01653 2.56409 3.84652C2.56409 3.67651 2.63162 3.51346 2.75184 3.39325C2.87205 3.27303 3.0351 3.2055 3.20511 3.2055H3.95511ZM9.61537 7.05165C9.44536 7.05165 9.28231 7.11919 9.1621 7.2394C9.04188 7.35962 8.97434 7.52267 8.97434 7.69268C8.97434 7.86269 9.04188 8.02573 9.1621 8.14595C9.28231 8.26617 9.44536 8.3337 9.61537 8.3337C9.78538 8.3337 9.94843 8.26617 10.0686 8.14595C10.1889 8.02573 10.2564 7.86269 10.2564 7.69268C10.2564 7.52267 10.1889 7.35962 10.0686 7.2394C9.94843 7.11919 9.78538 7.05165 9.61537 7.05165ZM7.80127 7.05165C7.9337 6.67631 8.1793 6.35129 8.50422 6.12139C8.82913 5.89149 9.21735 5.76803 9.61537 5.76803C10.0134 5.76803 10.4016 5.89149 10.7265 6.12139C11.0514 6.35129 11.297 6.67631 11.4295 7.05165H12.1795C12.3495 7.05165 12.5125 7.11919 12.6327 7.2394C12.753 7.35962 12.8205 7.52267 12.8205 7.69268C12.8205 7.86269 12.753 8.02573 12.6327 8.14595C12.5125 8.26617 12.3495 8.3337 12.1795 8.3337H11.4295C11.297 8.70904 11.0514 9.03407 10.7265 9.26397C10.4016 9.49387 10.0134 9.61733 9.61537 9.61733C9.21735 9.61733 8.82913 9.49387 8.50422 9.26397C8.1793 9.03407 7.9337 8.70904 7.80127 8.3337H3.20511C3.0351 8.3337 2.87205 8.26617 2.75184 8.14595C2.63162 8.02573 2.56409 7.86269 2.56409 7.69268C2.56409 7.52267 2.63162 7.35962 2.75184 7.2394C2.87205 7.11919 3.0351 7.05165 3.20511 7.05165H7.80127ZM5.76922 10.8978C5.5992 10.8978 5.43616 10.9653 5.31594 11.0856C5.19573 11.2058 5.12819 11.3688 5.12819 11.5388C5.12819 11.7088 5.19573 11.8719 5.31594 11.9921C5.43616 12.1123 5.5992 12.1799 5.76922 12.1799C5.93923 12.1799 6.10227 12.1123 6.22249 11.9921C6.3427 11.8719 6.41024 11.7088 6.41024 11.5388C6.41024 11.3688 6.3427 11.2058 6.22249 11.0856C6.10227 10.9653 5.93923 10.8978 5.76922 10.8978ZM3.95511 10.8978C4.08755 10.5225 4.33315 10.1974 4.65806 9.96754C4.98297 9.73764 5.37119 9.61418 5.76922 9.61418C6.16724 9.61418 6.55546 9.73764 6.88037 9.96754C7.20528 10.1974 7.45088 10.5225 7.58332 10.8978H12.1795C12.3495 10.8978 12.5125 10.9653 12.6327 11.0856C12.753 11.2058 12.8205 11.3688 12.8205 11.5388C12.8205 11.7088 12.753 11.8719 12.6327 11.9921C12.5125 12.1123 12.3495 12.1799 12.1795 12.1799H7.58332C7.45088 12.5552 7.20528 12.8802 6.88037 13.1101C6.55546 13.34 6.16724 13.4635 5.76922 13.4635C5.37119 13.4635 4.98297 13.34 4.65806 13.1101C4.33315 12.8802 4.08755 12.5552 3.95511 12.1799H3.20511C3.0351 12.1799 2.87205 12.1123 2.75184 11.9921C2.63162 11.8719 2.56409 11.7088 2.56409 11.5388C2.56409 11.3688 2.63162 11.2058 2.75184 11.0856C2.87205 10.9653 3.0351 10.8978 3.20511 10.8978H3.95511Z" fill="#828282"/>
</svg>
