<svg width="16" height="16" viewBox="0 0 16 16" fill="none" xmlns="http://www.w3.org/2000/svg">
<path d="M5.99996 3.33497C5.82315 3.33497 5.65358 3.40521 5.52856 3.53023C5.40353 3.65525 5.33329 3.82482 5.33329 4.00163C5.33329 4.17844 5.40353 4.34801 5.52856 4.47304C5.65358 4.59806 5.82315 4.6683 5.99996 4.6683C6.17677 4.6683 6.34634 4.59806 6.47136 4.47304C6.59639 4.34801 6.66663 4.17844 6.66663 4.00163C6.66663 3.82482 6.59639 3.65525 6.47136 3.53023C6.34634 3.40521 6.17677 3.33497 5.99996 3.33497ZM4.11329 3.33497C4.25103 2.94461 4.50645 2.60659 4.84436 2.36749C5.18227 2.1284 5.58602 2 5.99996 2C6.4139 2 6.81765 2.1284 7.15556 2.36749C7.49347 2.60659 7.74889 2.94461 7.88663 3.33497H12.6666C12.8434 3.33497 13.013 3.40521 13.138 3.53023C13.2631 3.65525 13.3333 3.82482 13.3333 4.00163C13.3333 4.17844 13.2631 4.34801 13.138 4.47304C13.013 4.59806 12.8434 4.6683 12.6666 4.6683H7.88663C7.74889 5.05866 7.49347 5.39668 7.15556 5.63577C6.81765 5.87487 6.4139 6.00327 5.99996 6.00327C5.58602 6.00327 5.18227 5.87487 4.84436 5.63577C4.50645 5.39668 4.25103 5.05866 4.11329 4.6683H3.33329C3.15648 4.6683 2.98691 4.59806 2.86189 4.47304C2.73686 4.34801 2.66663 4.17844 2.66663 4.00163C2.66663 3.82482 2.73686 3.65525 2.86189 3.53023C2.98691 3.40521 3.15648 3.33497 3.33329 3.33497H4.11329ZM9.99996 7.33497C9.82315 7.33497 9.65358 7.4052 9.52856 7.53023C9.40353 7.65525 9.33329 7.82482 9.33329 8.00163C9.33329 8.17845 9.40353 8.34801 9.52856 8.47304C9.65358 8.59806 9.82315 8.6683 9.99996 8.6683C10.1768 8.6683 10.3463 8.59806 10.4714 8.47304C10.5964 8.34801 10.6666 8.17845 10.6666 8.00163C10.6666 7.82482 10.5964 7.65525 10.4714 7.53023C10.3463 7.4052 10.1768 7.33497 9.99996 7.33497ZM8.11329 7.33497C8.25103 6.94461 8.50645 6.60659 8.84436 6.36749C9.18227 6.1284 9.58602 6 9.99996 6C10.4139 6 10.8177 6.1284 11.1556 6.36749C11.4935 6.60659 11.7489 6.94461 11.8866 7.33497H12.6666C12.8434 7.33497 13.013 7.4052 13.138 7.53023C13.2631 7.65525 13.3333 7.82482 13.3333 8.00163C13.3333 8.17845 13.2631 8.34801 13.138 8.47304C13.013 8.59806 12.8434 8.6683 12.6666 8.6683H11.8866C11.7489 9.05866 11.4935 9.39668 11.1556 9.63577C10.8177 9.87487 10.4139 10.0033 9.99996 10.0033C9.58602 10.0033 9.18227 9.87487 8.84436 9.63577C8.50645 9.39668 8.25103 9.05866 8.11329 8.6683H3.33329C3.15648 8.6683 2.98691 8.59806 2.86189 8.47304C2.73686 8.34801 2.66663 8.17845 2.66663 8.00163C2.66663 7.82482 2.73686 7.65525 2.86189 7.53023C2.98691 7.4052 3.15648 7.33497 3.33329 7.33497H8.11329ZM5.99996 11.335C5.82315 11.335 5.65358 11.4052 5.52856 11.5302C5.40353 11.6553 5.33329 11.8248 5.33329 12.0016C5.33329 12.1784 5.40353 12.348 5.52856 12.473C5.65358 12.5981 5.82315 12.6683 5.99996 12.6683C6.17677 12.6683 6.34634 12.5981 6.47136 12.473C6.59639 12.348 6.66663 12.1784 6.66663 12.0016C6.66663 11.8248 6.59639 11.6553 6.47136 11.5302C6.34634 11.4052 6.17677 11.335 5.99996 11.335ZM4.11329 11.335C4.25103 10.9446 4.50645 10.6066 4.84436 10.3675C5.18227 10.1284 5.58602 10 5.99996 10C6.4139 10 6.81765 10.1284 7.15556 10.3675C7.49347 10.6066 7.74889 10.9446 7.88663 11.335H12.6666C12.8434 11.335 13.013 11.4052 13.138 11.5302C13.2631 11.6553 13.3333 11.8248 13.3333 12.0016C13.3333 12.1784 13.2631 12.348 13.138 12.473C13.013 12.5981 12.8434 12.6683 12.6666 12.6683H7.88663C7.74889 13.0587 7.49347 13.3967 7.15556 13.6358C6.81765 13.8749 6.4139 14.0033 5.99996 14.0033C5.58602 14.0033 5.18227 13.8749 4.84436 13.6358C4.50645 13.3967 4.25103 13.0587 4.11329 12.6683H3.33329C3.15648 12.6683 2.98691 12.5981 2.86189 12.473C2.73686 12.348 2.66663 12.1784 2.66663 12.0016C2.66663 11.8248 2.73686 11.6553 2.86189 11.5302C2.98691 11.4052 3.15648 11.335 3.33329 11.335H4.11329Z" fill="#828282"/>
</svg>
