<svg width="32" height="32" viewBox="0 0 32 32" fill="none" xmlns="http://www.w3.org/2000/svg">
<path d="M16.0013 2.66602C16.5017 2.66602 16.9951 2.69313 17.4813 2.74735C17.6553 2.76661 17.8239 2.81996 17.9773 2.90436C18.1307 2.98876 18.266 3.10255 18.3755 3.23924C18.4849 3.37593 18.5664 3.53283 18.6152 3.701C18.664 3.86917 18.6792 4.0453 18.66 4.21935C18.6407 4.39339 18.5874 4.56194 18.503 4.71537C18.4186 4.86879 18.3048 5.00409 18.1681 5.11354C18.0314 5.22299 17.8745 5.30445 17.7063 5.35326C17.5381 5.40207 17.362 5.41728 17.188 5.39802C14.9907 5.15221 12.7713 5.59527 10.8369 6.66591C8.9024 7.73656 7.34844 9.38187 6.38992 11.3743C5.43141 13.3667 5.11571 15.6077 5.48649 17.7874C5.85728 19.967 6.89622 21.9776 8.45962 23.541C10.023 25.1044 12.0336 26.1434 14.2133 26.5142C16.3929 26.8849 18.634 26.5692 20.6264 25.6107C22.6188 24.6522 24.2641 23.0982 25.3347 21.1638C26.4054 19.2293 26.8484 17.01 26.6026 14.8127C26.5834 14.6386 26.5986 14.4625 26.6474 14.2943C26.6962 14.1262 26.7777 13.9693 26.8871 13.8326C27.1081 13.5565 27.4298 13.3796 27.7813 13.3407C28.1328 13.3018 28.4854 13.4041 28.7614 13.6252C28.8981 13.7346 29.0119 13.8699 29.0963 14.0233C29.1807 14.1768 29.234 14.3453 29.2533 14.5193C29.3066 15.0056 29.3337 15.4989 29.3346 15.9993C29.3346 23.3633 23.3653 29.3327 16.0013 29.3327C8.6373 29.3327 2.66797 23.3633 2.66797 15.9993C2.66797 8.63535 8.6373 2.66602 16.0013 2.66602ZM15.9586 10.502C16.0465 10.8443 15.9949 11.2075 15.8151 11.5118C15.6354 11.816 15.3422 12.0365 15 12.1247C14.0598 12.371 13.2413 12.9509 12.6974 13.7563C12.1534 14.5617 11.921 15.5375 12.0436 16.5016C12.1662 17.4657 12.6354 18.3523 13.3636 18.9959C14.0919 19.6395 15.0294 19.9962 16.0013 19.9993C16.8884 19.9997 17.7504 19.7052 18.4518 19.1621C19.1532 18.6191 19.6542 17.8583 19.876 16.9993C19.9705 16.6638 20.1926 16.3786 20.4948 16.2049C20.797 16.0312 21.1553 15.9827 21.4928 16.0699C21.8303 16.157 22.1202 16.3729 22.3005 16.6713C22.4808 16.9696 22.5371 17.3267 22.4573 17.666C22.0483 19.2339 21.0824 20.5993 19.7402 21.507C18.3979 22.4148 16.7711 22.8028 15.1636 22.5987C13.5562 22.3945 12.078 21.6121 11.0053 20.3977C9.9326 19.1832 9.33873 17.6197 9.33463 15.9993C9.33441 14.5212 9.82544 13.0849 10.7305 11.9162C11.6356 10.7476 12.9034 9.91289 14.3346 9.54335C14.5042 9.49964 14.6807 9.48977 14.8541 9.51429C15.0275 9.53882 15.1944 9.59726 15.3452 9.68628C15.496 9.77531 15.6278 9.89317 15.7331 10.0331C15.8383 10.1731 15.915 10.3324 15.9586 10.502ZM24.6733 2.83535C24.9167 2.93625 25.1247 3.107 25.2711 3.32603C25.4175 3.54506 25.4958 3.80255 25.496 4.06602V6.50602H27.9346C28.1983 6.50607 28.456 6.5843 28.6752 6.73081C28.8945 6.87733 29.0653 7.08554 29.1662 7.32914C29.2671 7.57274 29.2935 7.84079 29.2421 8.09939C29.1907 8.35799 29.0637 8.59555 28.8773 8.78202L24.1613 13.4927C23.9113 13.7427 23.5722 13.8833 23.2186 13.8833H20.0013L17.564 16.322C17.3138 16.5722 16.9745 16.7128 16.6206 16.7128C16.2668 16.7128 15.9275 16.5722 15.6773 16.322C15.4271 16.0718 15.2866 15.7325 15.2866 15.3787C15.2866 15.0249 15.4271 14.6855 15.6773 14.4353L18.116 11.9993V8.78068C18.116 8.42709 18.2566 8.08801 18.5066 7.83802L23.22 3.12335C23.4064 2.93677 23.644 2.80969 23.9027 2.75819C24.1614 2.70669 24.4296 2.73308 24.6733 2.83402M22.8293 7.28335L20.7826 9.33268V11.218H22.668L24.716 9.17135H24.1626C23.809 9.17135 23.4699 9.03087 23.2198 8.78082C22.9698 8.53078 22.8293 8.19164 22.8293 7.83802V7.28335Z" fill="#FFD700"/>
</svg>
