<svg width="122" height="90" viewBox="0 0 122 90" fill="none" xmlns="http://www.w3.org/2000/svg">
<path d="M27.0865 24.7943L4.33057 40.0156L26.745 73.5213L49.501 58.2999L27.0865 24.7943Z" fill="#F5F5F5"/>
<path d="M37.7417 56.7165L37.4841 58.3146L26.1711 56.684L26.4287 55.0859L37.7417 56.7165Z" fill="#E0E0E0"/>
<path d="M32.0446 51.0156L33.6672 51.2488L31.8682 62.3867L30.2437 62.1515L32.0446 51.0156Z" fill="#E0E0E0"/>
<path d="M21.6341 36.8597C21.6504 36.882 19.3707 38.4375 16.5415 40.3276C13.7122 42.2177 11.4062 43.7347 11.39 43.7103C11.3738 43.686 13.6534 42.1325 16.4826 40.2404C19.3119 38.3482 21.6078 36.8353 21.6341 36.8597Z" fill="#E0E0E0"/>
<path d="M29.9943 34.758C30.0105 34.7823 26.2179 37.3457 21.5248 40.4851C16.8317 43.6245 13.0066 46.1494 12.9944 46.1271C12.9822 46.1048 16.7668 43.5373 21.466 40.3979C26.1652 37.2585 29.9781 34.7337 29.9943 34.758Z" fill="#E0E0E0"/>
<path d="M31.6716 37.2736C31.6878 37.2979 27.8952 39.8634 23.202 43.0028C18.5089 46.1422 14.6838 48.667 14.6717 48.6427C14.6595 48.6184 18.4481 46.0549 23.1432 42.9135C27.8384 39.7721 31.6553 37.2493 31.6716 37.2736Z" fill="#E0E0E0"/>
<path d="M33.3488 39.7736C33.365 39.7979 29.5724 42.3634 24.8793 45.5007C20.1862 48.6381 16.3611 51.167 16.3611 51.1427C16.3611 51.1184 20.1355 48.5529 24.8306 45.4135C29.5258 42.2742 33.3326 39.7493 33.3488 39.7736Z" fill="#E0E0E0"/>
<path d="M35.0201 42.2814C35.0363 42.3058 31.2437 44.8692 26.5506 48.0086C21.8575 51.1479 18.0324 53.6728 18.0222 53.6485C18.0121 53.6242 21.8027 51.0607 26.5019 47.9214C31.2011 44.782 35.0201 42.2571 35.0201 42.2814Z" fill="#E0E0E0"/>
<path d="M103.18 47.2477L84.0684 60.0312L102.892 88.1698L122.004 75.3863L103.18 47.2477Z" fill="#F5F5F5"/>
<path d="M112.13 74.0564L111.913 75.399L102.411 74.03L102.63 72.6875L112.13 74.0564Z" fill="#E0E0E0"/>
<path d="M107.346 69.2656L108.709 69.4623L107.198 78.8156L105.833 78.6189L107.346 69.2656Z" fill="#E0E0E0"/>
<path d="M98.5943 57.3913C98.6105 57.4156 96.698 58.7237 94.321 60.3117C91.944 61.8996 90.0051 63.1691 89.9889 63.1509C89.9726 63.1326 91.8872 61.8205 94.2622 60.2305C96.6371 58.6406 98.5781 57.3568 98.5943 57.3913Z" fill="#E0E0E0"/>
<path d="M105.622 55.6174C105.638 55.6417 102.456 57.7995 98.5232 60.4339C94.5907 63.0683 91.372 65.1897 91.3558 65.1653C91.3395 65.141 94.5217 62.9832 98.4543 60.3467C102.387 57.7103 105.599 55.5931 105.622 55.6174Z" fill="#E0E0E0"/>
<path d="M107.031 57.7267C107.048 57.7511 103.865 59.9089 99.9328 62.5453C96.0002 65.1817 92.7815 67.299 92.7653 67.2747C92.7491 67.2503 95.9211 65.1027 99.8638 62.4662C103.807 59.8298 107.019 57.7044 107.031 57.7267Z" fill="#E0E0E0"/>
<path d="M108.439 59.8283C108.455 59.8526 105.271 62.0104 101.34 64.6469C97.4097 67.2833 94.189 69.4005 94.1728 69.3762C94.1566 69.3519 97.3387 67.1961 101.271 64.5576C105.204 61.9192 108.425 59.808 108.439 59.8283Z" fill="#E0E0E0"/>
<path d="M109.859 61.9377C109.875 61.962 106.693 64.1178 102.76 66.7543C98.8275 69.3907 95.6088 71.5079 95.5926 71.4856C95.5764 71.4633 98.7585 69.3035 102.691 66.6671C106.624 64.0306 109.832 61.9134 109.859 61.9377Z" fill="#E0E0E0"/>
<path d="M72.9447 26.0275L52.0918 14.875L35.6692 45.5784L56.522 56.7309L72.9447 26.0275Z" fill="#F5F5F5"/>
<path d="M52.9529 47.128L51.6306 47.5803L48.272 38.298L49.5963 37.8438L52.9529 47.128Z" fill="#E0E0E0"/>
<path d="M54.9809 40.4688L55.4636 41.8012L46.2437 44.9588L45.761 43.6264L54.9809 40.4688Z" fill="#E0E0E0"/>
<path d="M61.5319 26.77C61.5157 26.8004 59.4024 25.7012 56.8084 24.3161C54.2144 22.9309 52.1274 21.781 52.1436 21.7506C52.1599 21.7202 54.2752 22.8194 56.8692 24.2045C59.4632 25.5897 61.5481 26.7375 61.5319 26.77Z" fill="#E0E0E0"/>
<path d="M66.5374 32.2924C66.5211 32.3228 63.0206 30.4814 58.7189 28.1816C54.4172 25.8818 50.945 23.9917 50.9612 23.9613C50.9775 23.9309 54.476 25.7703 58.7777 28.0721C63.0794 30.3739 66.5536 32.262 66.5374 32.2924Z" fill="#E0E0E0"/>
<path d="M65.3084 34.5893C65.2921 34.6197 61.7916 32.7803 57.4899 30.4785C53.1882 28.1767 49.716 26.2886 49.7322 26.2582C49.7485 26.2278 53.247 28.0692 57.5487 30.369C61.8504 32.6688 65.3246 34.5589 65.3084 34.5893Z" fill="#E0E0E0"/>
<path d="M64.0791 36.8843C64.0629 36.9147 60.5623 35.0753 56.2606 32.7755C51.9589 30.4758 48.4868 28.5917 48.503 28.5552C48.5192 28.5187 52.0178 30.3642 56.3194 32.664C60.6211 34.9638 64.0953 36.8539 64.0791 36.8843Z" fill="#E0E0E0"/>
<path d="M62.8501 39.181C62.8339 39.2114 59.3333 37.372 55.0316 35.0723C50.73 32.7725 47.2557 30.8824 47.274 30.8519C47.2923 30.8215 50.7888 32.6609 55.0905 34.9607C59.3921 37.2605 62.8664 39.1506 62.8501 39.181Z" fill="#E0E0E0"/>
<path opacity="0.2" d="M62.9576 0H62.4343V8.91924H62.9576V0Z" fill="black"/>
<path d="M117.093 89.2012C117.093 89.2296 90.879 89.2539 58.5484 89.2539C26.2178 89.2539 0 89.2356 0 89.2012C0 89.1667 26.2097 89.1484 58.5484 89.1484C90.8872 89.1484 117.093 89.1707 117.093 89.2012Z" fill="#263238"/>
<path d="M6.48183 76.4942C6.82473 76.519 7.15913 76.6125 7.46507 76.7693C7.77102 76.9261 8.04223 77.1429 8.26254 77.4068C8.70059 77.9377 9.01076 78.5622 9.16912 79.232C9.51188 80.5138 9.30095 82.0287 8.93589 83.3043C7.54864 82.8074 6.69073 81.327 6.2993 80.5482C5.69086 79.3193 5.32782 76.7234 6.47575 76.4922" fill="#FFD700"/>
<path d="M10.9335 84.8563C10.7252 84.5332 10.6061 84.1608 10.5883 83.7768C10.5705 83.3928 10.6546 83.011 10.8321 82.67C11.0152 82.3323 11.2637 82.0345 11.5632 81.7939C11.8627 81.5533 12.2071 81.3747 12.5763 81.2687C12.915 81.1632 13.3085 81.1206 13.6026 81.3174C13.7351 81.4176 13.8384 81.5516 13.9015 81.7053C13.9647 81.8591 13.9854 82.0269 13.9615 82.1914C13.9083 82.5209 13.7683 82.8303 13.5559 83.0878C12.8805 84.0025 12.0612 84.763 10.9193 84.8563" fill="#FFD700"/>
<path d="M11.0878 89.147C11.0577 89.0608 11.0367 88.9718 11.0249 88.8813C10.9884 88.6907 10.9398 88.4453 10.8809 88.1512C10.6989 87.346 10.6482 86.5167 10.7309 85.6953C10.8265 84.8699 11.1409 84.0851 11.6415 83.4219C11.7945 83.2236 11.9708 83.0445 12.1668 82.8885C12.22 82.8463 12.2756 82.807 12.3331 82.7709C12.3514 82.7557 12.3719 82.7434 12.3939 82.7344C12.1374 82.9535 11.903 83.1974 11.6942 83.4624C11.22 84.1263 10.9214 84.8993 10.8262 85.7095C10.6964 86.6545 10.8566 87.5205 10.9499 88.1431C10.9986 88.4534 11.0391 88.7049 11.0615 88.8793C11.0774 88.9677 11.0862 89.0572 11.0878 89.147Z" fill="#263238"/>
<path d="M6.92798 78.4531C6.95114 78.4851 6.97021 78.5199 6.98477 78.5566C7.02127 78.6377 7.06995 78.7391 7.12674 78.8668C7.25045 79.1366 7.42285 79.528 7.63174 80.0127C8.04954 80.9841 8.60931 82.3348 9.19342 83.8396C9.77752 85.3444 10.2744 86.7173 10.6131 87.7171C10.7875 88.216 10.9234 88.6216 11.0187 88.9035C11.0613 89.0374 11.0938 89.1449 11.1202 89.228C11.1346 89.2653 11.1448 89.3041 11.1506 89.3436C11.13 89.3092 11.1137 89.2724 11.1019 89.2341C11.0715 89.153 11.0329 89.0475 10.9822 88.9157L10.5543 87.7394C10.1913 86.7477 9.68423 85.3768 9.10215 83.874C8.52007 82.3713 7.96842 81.0165 7.56684 80.039C7.36403 79.5584 7.20786 79.167 7.09226 78.881C7.03953 78.7512 6.99694 78.6478 6.96449 78.5647C6.94925 78.5286 6.93704 78.4913 6.92798 78.4531Z" fill="#263238"/>
<path d="M9.43906 86.3094C9.02174 85.6147 8.44504 85.0292 7.75664 84.6015C7.06823 84.1737 6.28789 83.9159 5.48013 83.8495C5.0745 83.8211 4.57558 83.89 4.39304 84.2551C4.21051 84.6201 4.45389 85.0663 4.73377 85.3624C5.32844 85.9844 6.09396 86.4165 6.93383 86.6042C7.77371 86.7918 8.65036 86.7267 9.45326 86.4169" fill="#FFD700"/>
<path d="M6.1045 84.9549C6.19049 84.9506 6.27669 84.954 6.36207 84.965C6.46206 84.9704 6.56163 84.982 6.66021 84.9995C6.77582 85.0218 6.9117 85.034 7.05367 85.0746C7.21236 85.1081 7.36883 85.1515 7.52217 85.2044C7.69983 85.2614 7.87389 85.3292 8.0434 85.4072C8.4333 85.5818 8.80209 85.8002 9.14266 86.0582C9.47929 86.3222 9.78419 86.6244 10.0513 86.9586C10.1666 87.1041 10.2729 87.2565 10.3697 87.4149C10.4571 87.5517 10.537 87.6932 10.609 87.8388C10.6699 87.9573 10.7241 88.0792 10.7713 88.2038C10.8119 88.2961 10.8465 88.3909 10.8747 88.4877C10.9047 88.5686 10.9271 88.6521 10.9416 88.7372C10.9193 88.7372 10.822 88.3884 10.5482 87.8692C10.4736 87.7297 10.3917 87.5943 10.3028 87.4636C10.2039 87.3099 10.097 87.1617 9.98231 87.0194C9.45183 86.3639 8.77533 85.8417 8.0069 85.4944C7.83045 85.4173 7.66211 85.3443 7.49784 85.2916C7.34702 85.2366 7.19333 85.1899 7.03745 85.1516C6.46957 84.9955 6.10247 84.9772 6.1045 84.9549Z" fill="#263238"/>
<path d="M43.1323 47.5703L35.9527 84.4397L35.0198 89.2664L82.8839 89.0352C85.0338 89.0251 86.9402 87.1167 87.6278 84.2815L96.1176 49.4746C96.6429 47.3228 95.4909 45.0839 93.8602 45.0859L45.4039 45.1366C44.3492 45.1346 43.4041 46.1324 43.1323 47.5703Z" fill="#FFD700"/>
<g opacity="0.5">
<path d="M43.1323 47.5703L35.9527 84.4397L35.0198 89.2664L82.8839 89.0352C85.0338 89.0251 86.9402 87.1167 87.6278 84.2815L96.1176 49.4746C96.6429 47.3228 95.4909 45.0839 93.8602 45.0859L45.4039 45.1366C44.3492 45.1346 43.4041 46.1324 43.1323 47.5703Z" fill="black"/>
</g>
<path d="M78.2984 81.9346L73.2281 41.0882C73.0253 39.4151 71.6887 38.1658 70.1128 38.1719L58.9986 38.2064C58.5856 38.211 58.1778 38.2997 57.8002 38.4671C57.4226 38.6345 57.083 38.877 56.8021 39.1798L51.529 44.7914L20.6201 44.9577C18.7319 44.9678 17.2797 46.7565 17.5292 48.7643L22.2365 86.5159C22.4393 88.187 23.7759 89.4342 25.3477 89.4322L79.2253 89.3247C85.2245 89.4484 85.7985 87.678 85.7985 87.678C78.9109 89.201 78.2984 81.9447 78.2984 81.9346Z" fill="#FFD700"/>
<g opacity="0.5">
<path d="M55.066 73.7618L53.2488 75.7128L39.2546 63.1228L41.0719 61.1719L55.066 73.7618Z" fill="white"/>
<path d="M52.4882 60.7422L54.496 62.5492L41.8344 76.147L39.8245 74.3401L52.4882 60.7422Z" fill="white"/>
</g>
<path d="M85.9912 21.0498C85.9256 21.0222 85.8692 20.9764 85.8286 20.9179C85.788 20.8593 85.7649 20.7904 85.7621 20.7193L85.6809 18.8373C85.6781 18.7788 85.6889 18.7204 85.7124 18.6669C85.736 18.6133 85.7718 18.5659 85.8168 18.5285C85.8619 18.4911 85.915 18.4648 85.9721 18.4515C86.0291 18.4382 86.0884 18.4383 86.1454 18.4519C86.3024 18.4858 86.4647 18.4873 86.6224 18.4563C86.78 18.4252 86.9296 18.3623 87.0621 18.2714C87.1841 18.1942 87.2889 18.0929 87.3702 17.9736C87.4515 17.8543 87.5074 17.7196 87.5347 17.5779C87.553 17.4343 87.5424 17.2886 87.5034 17.1492C87.4643 17.0099 87.3977 16.8798 87.3075 16.7667C87.2124 16.6379 87.0929 16.5292 86.9558 16.4468C86.8187 16.3643 86.6667 16.3097 86.5084 16.286C86.1893 16.2683 85.8735 16.3587 85.6122 16.5428C85.3508 16.7268 85.1593 16.9936 85.0684 17.3C85.0381 17.3929 84.9732 17.4705 84.8871 17.5166C84.801 17.5628 84.7005 17.5739 84.6064 17.5478C84.5123 17.5217 84.4319 17.4602 84.3819 17.3763C84.332 17.2924 84.3164 17.1924 84.3383 17.0972C84.4763 16.6153 84.776 16.1955 85.1871 15.9085C85.5982 15.6215 86.0956 15.4849 86.5956 15.5215C86.8559 15.5561 87.1065 15.6427 87.3326 15.7762C87.5587 15.9096 87.7557 16.0871 87.9119 16.2982C88.0638 16.4938 88.1749 16.7179 88.2387 16.9572C88.3024 17.1965 88.3175 17.4462 88.283 17.6914C88.2369 17.9363 88.1412 18.1692 88.0017 18.3757C87.8621 18.5822 87.6818 18.7579 87.4718 18.892C87.1675 19.0969 86.8121 19.2128 86.4455 19.2266L86.5084 20.6787C86.5108 20.7425 86.497 20.8059 86.4683 20.8629C86.4397 20.92 86.3971 20.9689 86.3445 21.0051C86.2919 21.0413 86.231 21.0636 86.1675 21.07C86.104 21.0764 86.0399 21.0667 85.9811 21.0417L85.9912 21.0498Z" fill="#FFD700"/>
<path d="M86.5471 21.8201C86.5514 21.8813 86.5374 21.9425 86.5069 21.9958C86.4764 22.049 86.4308 22.0921 86.3758 22.1194C86.3209 22.1468 86.259 22.1572 86.1981 22.1495C86.1372 22.1417 86.08 22.116 86.0337 22.0756C85.9874 22.0353 85.9541 21.9822 85.9381 21.9229C85.922 21.8637 85.9239 21.801 85.9434 21.7428C85.963 21.6846 85.9994 21.6335 86.048 21.596C86.0966 21.5585 86.1553 21.5363 86.2165 21.5321C86.2572 21.5291 86.298 21.5341 86.3367 21.547C86.3754 21.5599 86.4112 21.5803 86.4419 21.6071C86.4727 21.6339 86.4978 21.6665 86.5159 21.703C86.5339 21.7396 86.5445 21.7794 86.5471 21.8201Z" fill="#FFD700"/>
<path d="M79.4749 18.3887C79.4836 18.3485 79.4897 18.3079 79.4932 18.267C79.4932 18.1777 79.5155 18.0642 79.5317 17.904C79.5517 17.7073 79.5849 17.5121 79.6311 17.3199C79.6575 17.2063 79.6717 17.0806 79.7122 16.9528C79.7528 16.8251 79.7933 16.6871 79.838 16.5472C80.0728 15.8539 80.415 15.2017 80.852 14.6145C81.4248 13.8541 82.1511 13.2226 82.9836 12.7609C83.4575 12.4937 83.9622 12.2853 84.4865 12.1403C85.0523 11.9903 85.6351 11.914 86.2205 11.9132C86.5289 11.9082 86.8372 11.9245 87.1433 11.9619C87.2995 11.9781 87.4536 12.0186 87.6098 12.045C87.7677 12.0721 87.9236 12.11 88.0763 12.1586C88.7155 12.3372 89.3236 12.6128 89.8793 12.9759C91.1149 13.7772 92.056 14.9589 92.5605 16.3424C92.8322 17.0835 92.9695 17.8671 92.9661 18.6564C92.9745 19.4695 92.8307 20.277 92.5422 21.0373L92.451 21.2684L92.4388 21.2989L92.451 21.3293C92.96 22.4995 93.4651 23.6493 93.9417 24.7627L94.0269 24.6654L90.9846 23.4993L90.9481 23.4851L90.9177 23.5135C90.1129 24.2932 89.1277 24.8617 88.0499 25.1683C87.129 25.4219 86.1647 25.4772 85.2208 25.3307C84.2769 25.1843 83.3747 24.8393 82.5739 24.3186C81.918 23.8885 81.3399 23.3502 80.8642 22.7266C80.1748 21.8164 79.7282 20.7459 79.5662 19.6156C79.5419 19.4128 79.5216 19.2425 79.5033 19.0883C79.4851 18.9342 79.5033 18.8085 79.4932 18.701C79.483 18.5935 79.4932 18.5225 79.4932 18.4637C79.5033 18.4622 79.5125 18.4569 79.5188 18.4489C79.5252 18.4409 79.5283 18.4307 79.5275 18.4205C79.5268 18.4103 79.5222 18.4008 79.5147 18.3939C79.5072 18.3869 79.4973 18.383 79.4871 18.383C79.4769 18.383 79.467 18.3869 79.4595 18.3939C79.452 18.4008 79.4474 18.4103 79.4466 18.4205C79.4459 18.4307 79.449 18.4409 79.4554 18.4489C79.4617 18.4569 79.4709 18.4622 79.481 18.4637C79.481 18.5225 79.481 18.6016 79.481 18.701C79.481 18.8003 79.481 18.9383 79.481 19.0924C79.481 19.2465 79.5155 19.4229 79.5358 19.6237C79.6025 20.1115 79.7187 20.5912 79.8826 21.0555C80.1147 21.6686 80.4271 22.2482 80.8115 22.7793C81.2891 23.414 81.8714 23.9627 82.5334 24.4017C83.344 24.9355 84.2589 25.2907 85.2174 25.4438C86.1758 25.597 87.1559 25.5445 88.0925 25.29C89.1833 24.9802 90.1808 24.4063 90.9968 23.6189L90.9299 23.6331L93.9721 24.8053L94.1242 24.8641L94.0573 24.708C93.5746 23.5946 93.0757 22.4467 92.5686 21.2745V21.3333L92.6619 21.0961C92.9579 20.3192 93.1051 19.4937 93.0959 18.6624C93.1023 17.8564 92.9649 17.0556 92.6903 16.2978C92.1749 14.8867 91.2128 13.6825 89.9503 12.8684C89.3806 12.4969 88.7566 12.2164 88.1006 12.0369C87.9455 11.9878 87.7868 11.9505 87.626 11.9253C87.4678 11.897 87.3117 11.8564 87.1535 11.8422C86.8433 11.8037 86.531 11.7861 86.2185 11.7895C85.6238 11.792 85.0319 11.8724 84.4581 12.0288C83.9268 12.1796 83.4155 12.3934 82.9349 12.6656C82.0941 13.1386 81.3633 13.785 80.7912 14.5618C80.3554 15.1587 80.0179 15.8214 79.7913 16.5249C79.7487 16.6709 79.7082 16.8109 79.6717 16.9305C79.6394 17.0528 79.6137 17.1767 79.5946 17.3016C79.5511 17.4952 79.5226 17.6918 79.5094 17.8898C79.4972 18.0459 79.4891 18.1656 79.483 18.2548C79.4745 18.2989 79.4718 18.3439 79.4749 18.3887Z" fill="#263238"/>
</svg>
