<svg width="20" height="18" viewBox="0 0 20 18" fill="none" xmlns="http://www.w3.org/2000/svg">
<path d="M19.7032 5.73276C19.6388 5.65927 19.5596 5.60033 19.4706 5.55988C19.3817 5.51943 19.2852 5.49838 19.1875 5.49815H15.3745L10.7657 0.232761C10.7012 0.159607 10.6218 0.101018 10.5329 0.0608864C10.444 0.020755 10.3476 0 10.25 0C10.1525 0 10.0561 0.020755 9.96718 0.0608864C9.87828 0.101018 9.79894 0.159607 9.73442 0.232761L5.12559 5.49815H1.31255C1.21456 5.49815 1.11771 5.51908 1.02848 5.55956C0.939254 5.60004 0.859707 5.65912 0.795174 5.73285C0.730642 5.80658 0.682614 5.89325 0.65431 5.98705C0.626006 6.08086 0.618079 6.17963 0.631062 6.27675L1.92614 15.9928C1.97132 16.3226 2.13413 16.6249 2.38459 16.8441C2.63505 17.0633 2.95628 17.1846 3.28911 17.1857H17.211C17.5438 17.1846 17.865 17.0633 18.1155 16.8441C18.366 16.6249 18.5288 16.3226 18.574 15.9928L19.869 6.27675C19.8818 6.17949 19.8736 6.08063 19.845 5.9868C19.8164 5.89297 19.768 5.80635 19.7032 5.73276ZM6.26255 14.4357C6.23936 14.4369 6.21612 14.4369 6.19294 14.4357C6.02191 14.4365 5.8567 14.3736 5.72958 14.2592C5.60245 14.1448 5.52254 13.9871 5.50544 13.8169L5.02419 9.0044C5.00595 8.82298 5.06054 8.64174 5.17593 8.50056C5.29132 8.35938 5.45807 8.26982 5.6395 8.25159C5.82092 8.23336 6.00216 8.28794 6.14334 8.40333C6.28452 8.51873 6.37408 8.68548 6.39231 8.8669L6.87356 13.6794C6.89281 13.8607 6.83926 14.0422 6.72467 14.1841C6.61009 14.3259 6.44385 14.4164 6.26255 14.4357ZM10.9375 13.7482C10.9375 13.9305 10.8651 14.1054 10.7362 14.2343C10.6073 14.3632 10.4324 14.4357 10.25 14.4357C10.0677 14.4357 9.89284 14.3632 9.76391 14.2343C9.63498 14.1054 9.56255 13.9305 9.56255 13.7482V8.93565C9.56255 8.75332 9.63498 8.57845 9.76391 8.44952C9.89284 8.32058 10.0677 8.24815 10.25 8.24815C10.4324 8.24815 10.6073 8.32058 10.7362 8.44952C10.8651 8.57845 10.9375 8.75332 10.9375 8.93565V13.7482ZM6.95262 5.49815L10.25 1.72979L13.5475 5.49815H6.95262ZM15.4716 9.0044L14.9904 13.8169C14.9733 13.9863 14.894 14.1434 14.7678 14.2577C14.6416 14.372 14.4774 14.4354 14.3072 14.4357C14.284 14.4369 14.2607 14.4369 14.2375 14.4357C14.1477 14.4266 14.0605 14.4 13.981 14.3573C13.9015 14.3146 13.8311 14.2566 13.774 14.1867C13.7168 14.1168 13.674 14.0363 13.648 13.9499C13.622 13.8634 13.6132 13.7727 13.6222 13.6828L14.1035 8.87034C14.1217 8.68891 14.2113 8.52216 14.3525 8.40677C14.4936 8.29138 14.6749 8.23679 14.8563 8.25503C15.0377 8.27326 15.2045 8.36282 15.3199 8.504C15.4353 8.64518 15.4898 8.82641 15.4716 9.00784V9.0044Z" fill="#FFD700"/>
</svg>
