<svg width="32" height="32" viewBox="0 0 32 32" fill="none" xmlns="http://www.w3.org/2000/svg">
<g filter="url(#filter0_d_10362_76375)">
<rect width="32" height="32" rx="16" fill="#FFD700"/>
<path d="M21.0226 10.4758C21.114 10.4774 21.2042 10.4971 21.288 10.5337C21.3718 10.5702 21.4475 10.623 21.511 10.6888C21.5744 10.7547 21.6242 10.8324 21.6576 10.9175C21.6909 11.0026 21.7072 11.0935 21.7054 11.1849L21.5115 21.2712C21.487 22.5628 20.9504 23.7917 20.0199 24.6876C19.0893 25.5835 17.8409 26.0731 16.5493 26.0486C15.2578 26.0241 14.0289 25.4875 13.1329 24.5569C12.237 23.6263 11.7474 22.3779 11.772 21.0864L11.9148 8.78924C11.9317 7.86661 12.3145 6.98851 12.9789 6.34811C13.6433 5.70771 14.5349 5.35747 15.4575 5.37443C16.3801 5.39139 17.2582 5.77417 17.8986 6.43856C18.539 7.10295 18.8893 7.99452 18.8723 8.91715L18.7282 21.2155C18.7178 21.7699 18.4875 22.2975 18.088 22.6821C17.6886 23.0667 17.1527 23.2769 16.5983 23.2664C16.0438 23.2559 15.5163 23.0256 15.1317 22.6262C14.7471 22.2267 14.5369 21.6908 14.5474 21.1364L14.6615 10.8106C14.6602 10.7178 14.6776 10.6257 14.7125 10.5397C14.7473 10.4538 14.7991 10.3756 14.8646 10.3099C14.9301 10.2442 15.0081 10.1923 15.094 10.1572C15.1799 10.1221 15.272 10.1046 15.3648 10.1056C15.4576 10.1066 15.5492 10.1262 15.6343 10.1631C15.7194 10.2001 15.7963 10.2537 15.8604 10.3208C15.9244 10.3879 15.9744 10.4672 16.0074 10.5539C16.0404 10.6407 16.0557 10.7331 16.0525 10.8258L15.9431 21.1579C15.941 21.2493 15.957 21.3401 15.99 21.4253C16.023 21.5105 16.0725 21.5884 16.1356 21.6545C16.1987 21.7205 16.2742 21.7735 16.3578 21.8104C16.4414 21.8473 16.5315 21.8674 16.6228 21.8695C16.7142 21.8716 16.8051 21.8556 16.8903 21.8226C16.9755 21.7896 17.0533 21.7401 17.1194 21.677C17.1855 21.6139 17.2385 21.5383 17.2754 21.4547C17.3122 21.3711 17.3323 21.2811 17.3344 21.1898L17.4808 8.89513C17.4919 8.3413 17.2825 7.80576 16.8987 7.40632C16.5149 7.00689 15.9881 6.77629 15.4342 6.76524C14.8804 6.75419 14.3449 6.96361 13.9454 7.34742C13.546 7.73123 13.3154 8.25799 13.3044 8.81183L13.1604 21.1053C13.1514 21.5621 13.2324 22.0161 13.3989 22.4416C13.5654 22.8671 13.8141 23.2556 14.1307 23.5849C14.4473 23.9143 14.8257 24.1781 15.2443 24.3612C15.6629 24.5443 16.1134 24.6432 16.5702 24.6522C17.027 24.6612 17.4811 24.5801 17.9065 24.4137C18.332 24.2472 18.7205 23.9985 19.0499 23.6819C19.3792 23.3653 19.643 22.9869 19.8261 22.5683C20.0092 22.1497 20.1081 21.6992 20.1171 21.2424L20.3116 11.1555C20.3158 10.9711 20.3931 10.7959 20.5264 10.6685C20.6597 10.541 20.8382 10.4717 21.0226 10.4758Z" fill="#202020"/>
</g>
<defs>
<filter id="filter0_d_10362_76375" x="-3" y="-3" width="38" height="38" filterUnits="userSpaceOnUse" color-interpolation-filters="sRGB">
<feFlood flood-opacity="0" result="BackgroundImageFix"/>
<feColorMatrix in="SourceAlpha" type="matrix" values="0 0 0 0 0 0 0 0 0 0 0 0 0 0 0 0 0 0 127 0" result="hardAlpha"/>
<feMorphology radius="1" operator="dilate" in="SourceAlpha" result="effect1_dropShadow_10362_76375"/>
<feOffset/>
<feGaussianBlur stdDeviation="1"/>
<feComposite in2="hardAlpha" operator="out"/>
<feColorMatrix type="matrix" values="0 0 0 0 0 0 0 0 0 0 0 0 0 0 0 0 0 0 0.06 0"/>
<feBlend mode="normal" in2="BackgroundImageFix" result="effect1_dropShadow_10362_76375"/>
<feBlend mode="normal" in="SourceGraphic" in2="effect1_dropShadow_10362_76375" result="shape"/>
</filter>
</defs>
</svg>
