<svg width="29" height="28" viewBox="0 0 29 28" fill="none" xmlns="http://www.w3.org/2000/svg">
<path d="M24.3594 7.875H22.7549V4.375C22.7549 4.14294 22.6627 3.92038 22.4986 3.75628C22.3345 3.59219 22.1119 3.5 21.8799 3.5H7.87988C7.64782 3.5 7.42526 3.59219 7.26116 3.75628C7.09707 3.92038 7.00488 4.14294 7.00488 4.375V7.875H5.40035C3.87238 7.875 2.62988 9.05297 2.62988 10.5V19.25C2.62988 19.4821 2.72207 19.7046 2.88616 19.8687C3.05026 20.0328 3.27282 20.125 3.50488 20.125H7.00488V23.625C7.00488 23.8571 7.09707 24.0796 7.26116 24.2437C7.42526 24.4078 7.64782 24.5 7.87988 24.5H21.8799C22.1119 24.5 22.3345 24.4078 22.4986 24.2437C22.6627 24.0796 22.7549 23.8571 22.7549 23.625V20.125H26.2549C26.4869 20.125 26.7095 20.0328 26.8736 19.8687C27.0377 19.7046 27.1299 19.4821 27.1299 19.25V10.5C27.1299 9.05297 25.8874 7.875 24.3594 7.875ZM8.75488 5.25H21.0049V7.875H8.75488V5.25ZM21.0049 22.75H8.75488V17.5H21.0049V22.75ZM25.3799 18.375H22.7549V16.625C22.7549 16.3929 22.6627 16.1704 22.4986 16.0063C22.3345 15.8422 22.1119 15.75 21.8799 15.75H7.87988C7.64782 15.75 7.42526 15.8422 7.26116 16.0063C7.09707 16.1704 7.00488 16.3929 7.00488 16.625V18.375H4.37988V10.5C4.37988 10.0177 4.83816 9.625 5.40035 9.625H24.3594C24.9216 9.625 25.3799 10.0177 25.3799 10.5V18.375ZM22.7549 12.6875C22.7549 12.9471 22.6779 13.2008 22.5337 13.4167C22.3895 13.6325 22.1845 13.8008 21.9447 13.9001C21.7048 13.9994 21.4409 14.0254 21.1863 13.9748C20.9317 13.9241 20.6979 13.7991 20.5143 13.6156C20.3307 13.432 20.2057 13.1982 20.1551 12.9436C20.1045 12.689 20.1305 12.4251 20.2298 12.1852C20.3291 11.9454 20.4974 11.7404 20.7132 11.5962C20.929 11.452 21.1828 11.375 21.4424 11.375C21.7905 11.375 22.1243 11.5133 22.3705 11.7594C22.6166 12.0056 22.7549 12.3394 22.7549 12.6875Z" fill="#202020"/>
</svg>
