<svg width="20" height="20" viewBox="0 0 20 20" fill="none" xmlns="http://www.w3.org/2000/svg">
<g clip-path="url(#clip0_10362_76357)">
<path d="M4.19797 4.31156C3.07295 5.45903 2.31346 6.91434 2.01554 8.49346C1.71762 10.0726 1.89466 11.7046 2.52425 13.1831C3.15385 14.6616 4.20774 15.9202 5.55264 16.7997C6.89755 17.6793 8.47306 18.1402 10.08 18.1244C11.6869 18.1085 13.253 17.6165 14.5802 16.7105C15.9075 15.8046 16.9363 14.5254 17.5366 13.0348C18.1368 11.5441 18.2816 9.90893 17.9525 8.33601C17.6235 6.76309 16.8354 5.32307 15.6879 4.19805C14.1481 2.69155 12.0735 1.85743 9.91946 1.87872C7.76538 1.9 5.70772 2.77494 4.19797 4.31156ZM14.1604 9.95866C14.1612 10.0408 14.1459 10.1223 14.1152 10.1985C14.0846 10.2747 14.0392 10.3441 13.9817 10.4027C13.9242 10.4614 13.8557 10.5081 13.7801 10.5403C13.7045 10.5724 13.6234 10.5894 13.5412 10.5902L6.47051 10.66C6.30466 10.6616 6.14496 10.5973 6.02653 10.4812C5.90811 10.3651 5.84065 10.2067 5.83901 10.0409C5.83738 9.87503 5.90169 9.71532 6.0178 9.5969C6.13391 9.47847 6.29231 9.41101 6.45815 9.40938L13.5289 9.33952C13.611 9.33866 13.6925 9.354 13.7687 9.38466C13.8449 9.41532 13.9143 9.4607 13.973 9.5182C14.0316 9.5757 14.0783 9.6442 14.1105 9.71978C14.1427 9.79535 14.1596 9.87653 14.1604 9.95866Z" fill="#202020"/>
</g>
<defs>
<clipPath id="clip0_10362_76357">
<rect width="20" height="20" fill="white" transform="matrix(0 -1 1 0 0 20)"/>
</clipPath>
</defs>
</svg>
