<svg width="32" height="32" viewBox="0 0 32 32" fill="none" xmlns="http://www.w3.org/2000/svg">
<path d="M15.816 3.18697C16.4611 2.75705 17.2173 2.52389 17.9926 2.51584C18.7678 2.50779 19.5287 2.72521 20.1826 3.14164L25.7213 6.66697H28.0013C28.3549 6.66697 28.6941 6.80745 28.9441 7.0575C29.1942 7.30755 29.3346 7.64669 29.3346 8.00031V20.0003C29.3346 20.3539 29.1942 20.6931 28.9441 20.9431C28.6941 21.1932 28.3549 21.3336 28.0013 21.3336H25.9746C26.0174 21.9829 25.88 22.6314 25.5777 23.2075C25.2754 23.7837 24.8199 24.2652 24.2613 24.599L17.4706 28.6736C17.0534 28.9238 16.5756 29.055 16.0891 29.0532C15.6027 29.0513 15.1259 28.9163 14.7106 28.663C14.2429 29.0763 13.6449 29.3124 13.0209 29.3302C12.397 29.348 11.7865 29.1463 11.296 28.7603L4.44264 23.375C3.96358 22.9991 3.6276 22.4705 3.49055 21.8772C3.3535 21.2839 3.42364 20.6616 3.6893 20.1136C3.37091 19.864 3.1135 19.5452 2.93655 19.1814C2.7596 18.8175 2.66775 18.4182 2.66797 18.0136V8.00031C2.66797 7.64669 2.80844 7.30755 3.05849 7.0575C3.30854 6.80745 3.64768 6.66697 4.0013 6.66697H10.5973L15.816 3.18697ZM5.5653 18.195L6.48797 17.3883C7.27648 16.6986 8.30411 16.3457 9.35002 16.4055C10.3959 16.4654 11.3766 16.9331 12.0813 17.7083L15.684 21.671C16.2489 22.2924 16.604 23.0759 16.6987 23.9104C16.7935 24.7449 16.6232 25.588 16.212 26.3203L22.8906 22.3136C23.0647 22.2081 23.1968 22.0454 23.2644 21.8533C23.332 21.6612 23.3309 21.4517 23.2613 21.2603L17.3586 12.9963C17.197 12.7698 16.9685 12.5996 16.7053 12.5094C16.442 12.4193 16.1572 12.4138 15.8906 12.4936L12.576 13.487C11.8842 13.6944 11.1493 13.7108 10.449 13.5343C9.74874 13.3577 9.10933 12.9949 8.59864 12.4843L8.20797 12.095C7.85364 11.7407 7.60629 11.2937 7.49428 10.8054C7.38226 10.317 7.41011 9.80692 7.57464 9.33364H5.33464V18.0136L5.5653 18.195ZM18.752 5.39231C18.5337 5.25326 18.2797 5.18073 18.0209 5.18357C17.7621 5.18641 17.5098 5.2645 17.2946 5.40831L10.0946 10.2083L10.484 10.599C10.6544 10.7692 10.8677 10.89 11.1013 10.9487C11.3349 11.0074 11.58 11.0017 11.8106 10.9323L15.124 9.93897C15.9235 9.69923 16.7779 9.71559 17.5677 9.98577C18.3574 10.2559 19.0429 10.7664 19.528 11.4456L24.688 18.667H26.668V9.33364H25.7226C25.2153 9.33358 24.7186 9.1888 24.2906 8.91631L18.752 5.39231ZM8.24264 19.3936L6.08797 21.279L12.9413 26.6643L13.8813 25.0216C14.021 24.777 14.0796 24.4944 14.0487 24.2144C14.0178 23.9343 13.899 23.6713 13.7093 23.463L10.108 19.5003C9.87308 19.2421 9.54628 19.0862 9.19775 19.0663C8.84923 19.0463 8.50545 19.1639 8.24264 19.3936Z" fill="#FFD700"/>
</svg>
