<svg width="32" height="32" viewBox="0 0 32 32" fill="none" xmlns="http://www.w3.org/2000/svg">
<rect width="32" height="32" rx="16" fill="black"/>
<path d="M23.7365 22.4796L20.2229 18.9646C21.2764 17.5918 21.7682 15.8697 21.5987 14.1476C21.4291 12.4255 20.6108 10.8324 19.3098 9.6914C18.0087 8.55043 16.3224 7.94705 14.5928 8.00365C12.8632 8.06025 11.2199 8.7726 9.99629 9.99619C8.77264 11.2198 8.06026 12.863 8.00365 14.5925C7.94705 16.322 8.55046 18.0083 9.69148 19.3092C10.8325 20.6102 12.4257 21.4285 14.1479 21.598C15.87 21.7676 17.5922 21.2758 18.9651 20.2223L22.4817 23.7395C22.5643 23.8221 22.6623 23.8876 22.7703 23.9323C22.8782 23.977 22.9938 24 23.1106 24C23.2274 24 23.3431 23.977 23.451 23.9323C23.5589 23.8876 23.6569 23.8221 23.7395 23.7395C23.8221 23.6569 23.8876 23.5589 23.9323 23.451C23.977 23.3431 24 23.2274 24 23.1106C24 22.9939 23.977 22.8782 23.9323 22.7703C23.8876 22.6624 23.8221 22.5644 23.7395 22.4818L23.7365 22.4796ZM9.79063 14.8215C9.79063 13.8264 10.0857 12.8538 10.6385 12.0264C11.1914 11.1991 11.9771 10.5543 12.8964 10.1735C13.8158 9.79272 14.8274 9.69309 15.8033 9.88721C16.7793 10.0813 17.6757 10.5605 18.3793 11.2641C19.083 11.9677 19.5621 12.8641 19.7563 13.84C19.9504 14.8159 19.8508 15.8274 19.47 16.7467C19.0892 17.666 18.4443 18.4517 17.6169 19.0045C16.7896 19.5573 15.8169 19.8524 14.8218 19.8524C13.4879 19.851 12.209 19.3205 11.2657 18.3774C10.3225 17.4342 9.792 16.1553 9.79063 14.8215Z" fill="#FAF9F9"/>
</svg>
