<svg width="55" height="36" viewBox="0 0 55 36" fill="none" xmlns="http://www.w3.org/2000/svg">
<rect width="55" height="36" rx="2" fill="#FFD700"/>
<path d="M35.6673 24.8427L31.9572 21.131C33.0696 19.6814 33.589 17.8629 33.4099 16.0444C33.2308 14.2259 32.3668 12.5436 30.993 11.3388C29.6192 10.134 27.8385 9.49682 26.0122 9.55659C24.186 9.61636 22.4508 10.3686 21.1587 11.6607C19.8666 12.9527 19.1144 14.6879 19.0546 16.5142C18.9949 18.3405 19.632 20.1211 20.8368 21.4949C22.0417 22.8687 23.724 23.7328 25.5424 23.9119C27.3609 24.0909 29.1794 23.5715 30.629 22.4591L34.3423 26.1732C34.4295 26.2604 34.5331 26.3296 34.647 26.3768C34.7609 26.424 34.8831 26.4482 35.0064 26.4482C35.1297 26.4482 35.2518 26.424 35.3658 26.3768C35.4797 26.3296 35.5832 26.2604 35.6705 26.1732C35.7577 26.086 35.8268 25.9824 35.874 25.8685C35.9212 25.7546 35.9455 25.6324 35.9455 25.5091C35.9455 25.3858 35.9212 25.2637 35.874 25.1497C35.8268 25.0358 35.7577 24.9323 35.6705 24.8451L35.6673 24.8427ZM20.9415 16.756C20.9415 15.7053 21.2531 14.6782 21.8369 13.8045C22.4206 12.9309 23.2503 12.25 24.221 11.8479C25.1918 11.4458 26.2599 11.3406 27.2905 11.5456C28.321 11.7506 29.2676 12.2565 30.0105 12.9995C30.7535 13.7425 31.2595 14.6891 31.4645 15.7196C31.6694 16.7501 31.5642 17.8183 31.1622 18.789C30.7601 19.7597 30.0791 20.5894 29.2055 21.1732C28.3319 21.7569 27.3048 22.0685 26.254 22.0685C24.8455 22.067 23.4951 21.5069 22.4991 20.5109C21.5032 19.5149 20.943 18.1645 20.9415 16.756Z" fill="#202020"/>
</svg>
