<svg width="19" height="18" viewBox="0 0 19 18" fill="none" xmlns="http://www.w3.org/2000/svg">
<path d="M16.8125 4.66797H13.375C13.375 3.57395 12.9404 2.52474 12.1668 1.75115C11.3932 0.977566 10.344 0.542969 9.25 0.542969C8.15598 0.542969 7.10677 0.977566 6.33318 1.75115C5.5596 2.52474 5.125 3.57395 5.125 4.66797H1.6875C1.32283 4.66797 0.973091 4.81283 0.715228 5.0707C0.457366 5.32856 0.3125 5.6783 0.3125 6.04297V16.3555C0.3125 16.7201 0.457366 17.0699 0.715228 17.3277C0.973091 17.5856 1.32283 17.7305 1.6875 17.7305H16.8125C17.1772 17.7305 17.5269 17.5856 17.7848 17.3277C18.0426 17.0699 18.1875 16.7201 18.1875 16.3555V6.04297C18.1875 5.6783 18.0426 5.32856 17.7848 5.0707C17.5269 4.81283 17.1772 4.66797 16.8125 4.66797ZM6.5 8.10547C6.5 8.28781 6.42757 8.46267 6.29864 8.5916C6.1697 8.72054 5.99484 8.79297 5.8125 8.79297C5.63016 8.79297 5.4553 8.72054 5.32636 8.5916C5.19743 8.46267 5.125 8.28781 5.125 8.10547V6.73047C5.125 6.54813 5.19743 6.37326 5.32636 6.24433C5.4553 6.1154 5.63016 6.04297 5.8125 6.04297C5.99484 6.04297 6.1697 6.1154 6.29864 6.24433C6.42757 6.37326 6.5 6.54813 6.5 6.73047V8.10547ZM9.25 1.91797C9.97935 1.91797 10.6788 2.2077 11.1945 2.72342C11.7103 3.23915 12 3.93862 12 4.66797H6.5C6.5 3.93862 6.78973 3.23915 7.30546 2.72342C7.82118 2.2077 8.52065 1.91797 9.25 1.91797ZM13.375 8.10547C13.375 8.28781 13.3026 8.46267 13.1736 8.5916C13.0447 8.72054 12.8698 8.79297 12.6875 8.79297C12.5052 8.79297 12.3303 8.72054 12.2014 8.5916C12.0724 8.46267 12 8.28781 12 8.10547V6.73047C12 6.54813 12.0724 6.37326 12.2014 6.24433C12.3303 6.1154 12.5052 6.04297 12.6875 6.04297C12.8698 6.04297 13.0447 6.1154 13.1736 6.24433C13.3026 6.37326 13.375 6.54813 13.375 6.73047V8.10547Z" fill="#FFD700"/>
</svg>
