<svg width="44" height="43" viewBox="0 0 44 43" fill="none" xmlns="http://www.w3.org/2000/svg">
<rect width="44" height="43" rx="21.5" fill="#FFD700"/>
<path d="M32.8478 16.4506L30.4441 25.1019C30.3119 25.5745 30.0292 25.9911 29.6389 26.2885C29.2486 26.5859 28.772 26.7479 28.2812 26.75H19.015C18.5228 26.7498 18.0443 26.5886 17.6522 26.291C17.2602 25.9935 16.9763 25.5758 16.8438 25.1019L13.555 13.25H11.875C11.6761 13.25 11.4853 13.171 11.3447 13.0303C11.204 12.8897 11.125 12.6989 11.125 12.5C11.125 12.3011 11.204 12.1103 11.3447 11.9697C11.4853 11.829 11.6761 11.75 11.875 11.75H14.125C14.289 11.75 14.4484 11.8037 14.579 11.9029C14.7095 12.0021 14.804 12.1414 14.8478 12.2994L15.7366 15.5H32.125C32.2406 15.5 32.3547 15.5267 32.4583 15.578C32.5619 15.6294 32.6522 15.704 32.7222 15.7961C32.7921 15.8881 32.8399 15.9951 32.8617 16.1086C32.8835 16.2222 32.8787 16.3392 32.8478 16.4506ZM18.625 28.25C18.3283 28.25 18.0383 28.338 17.7916 28.5028C17.545 28.6676 17.3527 28.9019 17.2392 29.176C17.1256 29.4501 17.0959 29.7517 17.1538 30.0426C17.2117 30.3336 17.3546 30.6009 17.5643 30.8107C17.7741 31.0204 18.0414 31.1633 18.3324 31.2212C18.6233 31.2791 18.9249 31.2494 19.199 31.1358C19.4731 31.0223 19.7074 30.83 19.8722 30.5834C20.037 30.3367 20.125 30.0467 20.125 29.75C20.125 29.3522 19.967 28.9706 19.6857 28.6893C19.4044 28.408 19.0228 28.25 18.625 28.25ZM28.375 28.25C28.0783 28.25 27.7883 28.338 27.5416 28.5028C27.295 28.6676 27.1027 28.9019 26.9892 29.176C26.8756 29.4501 26.8459 29.7517 26.9038 30.0426C26.9617 30.3336 27.1046 30.6009 27.3143 30.8107C27.5241 31.0204 27.7914 31.1633 28.0824 31.2212C28.3733 31.2791 28.6749 31.2494 28.949 31.1358C29.2231 31.0223 29.4574 30.83 29.6222 30.5834C29.787 30.3367 29.875 30.0467 29.875 29.75C29.875 29.3522 29.717 28.9706 29.4357 28.6893C29.1544 28.408 28.7728 28.25 28.375 28.25Z" fill="black"/>
</svg>
