<svg width="28" height="28" viewBox="0 0 28 28" fill="none" xmlns="http://www.w3.org/2000/svg">
<path d="M18.9427 16.9531C17.8577 18.83 16.0563 19.9062 14 19.9062C11.9438 19.9062 10.1423 18.83 9.05735 16.9531C8.97889 16.8031 8.96142 16.6287 9.00858 16.4661C9.05574 16.3035 9.16388 16.1655 9.31042 16.0808C9.45697 15.9961 9.63057 15.9713 9.79497 16.0115C9.95937 16.0518 10.1019 16.154 10.1927 16.2969C11.0502 17.7778 12.402 18.5937 14 18.5937C15.598 18.5937 16.9531 17.7778 17.8073 16.2969C17.8484 16.2184 17.9048 16.1491 17.9733 16.0931C18.0419 16.0371 18.121 15.9955 18.206 15.9708C18.291 15.9461 18.3801 15.9389 18.468 15.9496C18.5558 15.9603 18.6406 15.9886 18.7173 16.0329C18.7939 16.0772 18.8608 16.1365 18.9139 16.2073C18.967 16.2781 19.0052 16.359 19.0262 16.4449C19.0473 16.5309 19.0508 16.6202 19.0364 16.7076C19.022 16.7949 18.9901 16.8784 18.9427 16.9531ZM25.1563 14C25.1563 16.2065 24.502 18.3634 23.2761 20.1981C22.0502 22.0327 20.3079 23.4626 18.2693 24.307C16.2308 25.1514 13.9876 25.3724 11.8235 24.9419C9.65943 24.5114 7.67157 23.4489 6.11134 21.8887C4.55112 20.3284 3.48859 18.3406 3.05812 16.1765C2.62765 14.0124 2.84858 11.7692 3.69297 9.73069C4.53736 7.69215 5.96729 5.94978 7.80192 4.72392C9.63656 3.49805 11.7935 2.84375 14 2.84375C16.9578 2.84722 19.7934 4.02373 21.8848 6.11518C23.9763 8.20663 25.1528 11.0422 25.1563 14ZM23.8438 14C23.8438 12.0531 23.2664 10.1499 22.1848 8.53111C21.1031 6.91231 19.5658 5.65061 17.767 4.90556C15.9683 4.16051 13.9891 3.96557 12.0796 4.34539C10.1701 4.72522 8.4161 5.66274 7.03942 7.03942C5.66275 8.41609 4.72522 10.1701 4.3454 12.0796C3.96558 13.9891 4.16052 15.9683 4.90557 17.767C5.65062 19.5657 6.91231 21.1031 8.53111 22.1848C10.1499 23.2664 12.0531 23.8437 14 23.8437C16.6098 23.8409 19.112 22.8028 20.9574 20.9574C22.8028 19.112 23.8409 16.6098 23.8438 14ZM10.0625 12.9062C10.2788 12.9062 10.4903 12.8421 10.6702 12.7219C10.85 12.6017 10.9902 12.4309 11.073 12.2311C11.1558 12.0312 11.1774 11.8113 11.1352 11.5991C11.093 11.387 10.9889 11.1921 10.8359 11.0391C10.6829 10.8861 10.4881 10.782 10.2759 10.7398C10.0637 10.6976 9.8438 10.7192 9.64394 10.802C9.44409 10.8848 9.27327 11.025 9.15308 11.2048C9.0329 11.3847 8.96875 11.5962 8.96875 11.8125C8.96875 12.1026 9.08399 12.3808 9.28911 12.5859C9.49422 12.791 9.77242 12.9062 10.0625 12.9062ZM17.9375 10.7187C17.7212 10.7187 17.5097 10.7829 17.3298 10.9031C17.15 11.0233 17.0098 11.1941 16.927 11.3939C16.8442 11.5938 16.8226 11.8137 16.8648 12.0259C16.907 12.238 17.0111 12.4329 17.1641 12.5859C17.3171 12.7389 17.512 12.843 17.7241 12.8852C17.9363 12.9274 18.1562 12.9058 18.3561 12.823C18.5559 12.7402 18.7267 12.6 18.8469 12.4202C18.9671 12.2403 19.0313 12.0288 19.0313 11.8125C19.0313 11.5224 18.916 11.2442 18.7109 11.0391C18.5058 10.834 18.2276 10.7187 17.9375 10.7187Z" fill="#202020"/>
</svg>
