<svg width="44" height="44" viewBox="0 0 44 44" fill="none" xmlns="http://www.w3.org/2000/svg">
<rect width="44" height="44" rx="22" fill="#008000"/>
<path d="M33.1966 19.8398L31.8841 16.5586C31.7727 16.2808 31.5804 16.0429 31.3321 15.8758C31.0839 15.7086 30.7912 15.6199 30.4919 15.6211H27.25V14.8711C27.25 14.6722 27.171 14.4814 27.0303 14.3408C26.8897 14.2001 26.6989 14.1211 26.5 14.1211H12.25C11.8522 14.1211 11.4706 14.2791 11.1893 14.5604C10.908 14.8417 10.75 15.2233 10.75 15.6211V26.1211C10.75 26.5189 10.908 26.9004 11.1893 27.1818C11.4706 27.4631 11.8522 27.6211 12.25 27.6211H13.8438C14.009 28.2664 14.3843 28.8384 14.9105 29.2468C15.4367 29.6553 16.0839 29.877 16.75 29.877C17.4161 29.877 18.0633 29.6553 18.5895 29.2468C19.1157 28.8384 19.491 28.2664 19.6562 27.6211H24.3438C24.509 28.2664 24.8843 28.8384 25.4105 29.2468C25.9367 29.6553 26.5839 29.877 27.25 29.877C27.9161 29.877 28.5633 29.6553 29.0895 29.2468C29.6157 28.8384 29.991 28.2664 30.1562 27.6211H31.75C32.1478 27.6211 32.5294 27.4631 32.8107 27.1818C33.092 26.9004 33.25 26.5189 33.25 26.1211V20.1211C33.2501 20.0248 33.232 19.9294 33.1966 19.8398ZM16.75 28.3711C16.4533 28.3711 16.1633 28.2831 15.9166 28.1183C15.67 27.9535 15.4777 27.7192 15.3642 27.4451C15.2506 27.171 15.2209 26.8694 15.2788 26.5785C15.3367 26.2875 15.4796 26.0202 15.6893 25.8104C15.8991 25.6007 16.1664 25.4578 16.4574 25.3999C16.7483 25.342 17.0499 25.3717 17.324 25.4853C17.5981 25.5988 17.8324 25.7911 17.9972 26.0377C18.162 26.2844 18.25 26.5744 18.25 26.8711C18.25 27.2689 18.092 27.6504 17.8107 27.9318C17.5294 28.2131 17.1478 28.3711 16.75 28.3711ZM12.25 21.6211V15.6211H25.75V21.6211H12.25ZM27.25 28.3711C26.9533 28.3711 26.6633 28.2831 26.4166 28.1183C26.17 27.9535 25.9777 27.7192 25.8642 27.4451C25.7506 27.171 25.7209 26.8694 25.7788 26.5785C25.8367 26.2875 25.9796 26.0202 26.1893 25.8104C26.3991 25.6007 26.6664 25.4578 26.9574 25.3999C27.2483 25.342 27.5499 25.3717 27.824 25.4853C28.0981 25.5988 28.3324 25.7911 28.4972 26.0377C28.662 26.2844 28.75 26.5744 28.75 26.8711C28.75 27.2689 28.592 27.6504 28.3107 27.9318C28.0294 28.2131 27.6478 28.3711 27.25 28.3711ZM27.25 19.3711V17.1211H30.4919L31.3919 19.3711H27.25Z" fill="black"/>
</svg>
