<svg width="61" height="56" viewBox="0 0 61 56" fill="none" xmlns="http://www.w3.org/2000/svg">
<path d="M15.1495 30.402C15.1558 30.529 15.1363 30.6559 15.092 30.7751C15.0478 30.8944 14.9797 31.0033 14.892 31.0954C14.8043 31.1875 14.6988 31.2608 14.5819 31.3108C14.465 31.3608 14.3391 31.3865 14.212 31.3863H3.87136C3.44817 31.387 3.0372 31.2444 2.70529 30.9819C2.37337 30.7193 2.14004 30.3522 2.04324 29.9403C1.98296 29.6583 1.98574 29.3664 2.05138 29.0857C2.11701 28.8049 2.24389 28.5421 2.42293 28.316C4.07717 26.1222 6.27204 24.3949 8.79324 23.3028C7.68635 22.2935 6.83739 21.0338 6.31748 19.629C5.79756 18.2242 5.62183 16.7153 5.80499 15.2287C5.98815 13.742 6.52487 12.3209 7.3702 11.0843C8.21554 9.84769 9.34487 8.83167 10.6636 8.1213C11.9824 7.41093 13.4521 7.0269 14.9498 7.00136C16.4475 6.97583 17.9295 7.30953 19.2717 7.97454C20.6139 8.63954 21.7772 9.61647 22.6642 10.8235C23.5512 12.0306 24.1361 13.4326 24.3698 14.9121C24.4 15.1111 24.3643 15.3145 24.2683 15.4913C24.1723 15.6682 24.0211 15.8088 23.8378 15.8918C21.2371 17.0941 19.0346 19.0152 17.4902 21.4284C15.9458 23.8416 15.1238 26.6462 15.1214 29.5113C15.1214 29.8113 15.1214 30.1067 15.1495 30.402ZM57.8057 28.3137C56.1553 26.1224 53.9655 24.3961 51.4495 23.3028C52.5564 22.2935 53.4053 21.0338 53.9252 19.629C54.4452 18.2242 54.6209 16.7153 54.4377 15.2287C54.2546 13.742 53.7179 12.3209 52.8725 11.0843C52.0272 9.84769 50.8979 8.83167 49.5791 8.1213C48.2604 7.41093 46.7906 7.0269 45.2929 7.00136C43.7952 6.97583 42.3132 7.30953 40.971 7.97454C39.6288 8.63954 38.4655 9.61647 37.5785 10.8235C36.6915 12.0306 36.1067 13.4326 35.8729 14.9121C35.8427 15.1111 35.8784 15.3145 35.9744 15.4913C36.0705 15.6682 36.2216 15.8088 36.405 15.8918C39.0056 17.0941 41.2081 19.0152 42.7525 21.4284C44.297 23.8416 45.1189 26.6462 45.1214 29.5113C45.1214 29.8113 45.1214 30.1067 45.0932 30.402C45.0869 30.529 45.1064 30.6559 45.1507 30.7751C45.1949 30.8944 45.263 31.0033 45.3507 31.0954C45.4384 31.1875 45.5439 31.2608 45.6608 31.3108C45.7777 31.3608 45.9036 31.3865 46.0307 31.3863H56.3714C56.7946 31.387 57.2055 31.2444 57.5374 30.9819C57.8693 30.7193 58.1027 30.3522 58.1995 29.9403C58.2601 29.6578 58.2573 29.3653 58.1913 29.084C58.1252 28.8028 57.9975 28.5396 57.8175 28.3137H57.8057ZM36.9464 38.434C38.8133 37.0042 40.1852 35.0254 40.8694 32.7756C41.5536 30.5258 41.5156 28.1182 40.7608 25.8912C40.0059 23.6641 38.5722 21.7295 36.6611 20.3594C34.75 18.9892 32.4576 18.2524 30.1061 18.2524C27.7546 18.2524 25.4622 18.9892 23.5511 20.3594C21.64 21.7295 20.2063 23.6641 19.4515 25.8912C18.6966 28.1182 18.6587 30.5258 19.3428 32.7756C20.027 35.0254 21.399 37.0042 23.2659 38.434C19.9531 39.8694 17.1868 42.3276 15.3721 45.4488C15.2076 45.7339 15.1209 46.0573 15.1209 46.3864C15.121 46.7156 15.2076 47.039 15.3722 47.324C15.5369 47.6091 15.7736 47.8458 16.0587 48.0103C16.3438 48.1748 16.6672 48.2614 16.9964 48.2613H43.2464C43.5755 48.2614 43.8989 48.1748 44.184 48.0103C44.4691 47.8458 44.7059 47.6091 44.8705 47.324C45.0351 47.039 45.1218 46.7156 45.1218 46.3864C45.1218 46.0573 45.0352 45.7339 44.8706 45.4488C43.052 42.3256 40.2806 39.8672 36.9628 38.434H36.9464Z" fill="#0E0E0E"/>
</svg>
