<svg width="25" height="24" viewBox="0 0 25 24" fill="none" xmlns="http://www.w3.org/2000/svg">
<path fill-rule="evenodd" clip-rule="evenodd" d="M15.9163 9.87562L11.4163 6.87563C11.1861 6.72204 10.89 6.70769 10.646 6.83831C10.402 6.96892 10.2498 7.22327 10.25 7.5V13.5C10.2498 13.7767 10.402 14.0311 10.646 14.1617C10.89 14.2923 11.1861 14.278 11.4163 14.1244L15.9163 11.1244C16.1252 10.9853 16.2507 10.751 16.2507 10.5C16.2507 10.249 16.1252 10.0147 15.9163 9.87562V9.87562ZM11.75 12.0984V8.90625L14.1481 10.5L11.75 12.0984ZM20.75 3.75H4.25C3.42157 3.75 2.75 4.42157 2.75 5.25V15.75C2.75 16.5784 3.42157 17.25 4.25 17.25H20.75C21.5784 17.25 22.25 16.5784 22.25 15.75V5.25C22.25 4.42157 21.5784 3.75 20.75 3.75V3.75ZM20.75 15.75H4.25V5.25H20.75V15.75V15.75ZM22.25 19.5C22.25 19.9142 21.9142 20.25 21.5 20.25H3.5C3.08579 20.25 2.75 19.9142 2.75 19.5C2.75 19.0858 3.08579 18.75 3.5 18.75H21.5C21.9142 18.75 22.25 19.0858 22.25 19.5V19.5Z" fill="#B0B0B0"/>
</svg>
