<svg width="18" height="16" viewBox="0 0 18 16" fill="none" xmlns="http://www.w3.org/2000/svg">
<path d="M15.8125 3.45312H2.0625C1.88016 3.45312 1.7053 3.38069 1.57636 3.25176C1.44743 3.12283 1.375 2.94796 1.375 2.76562C1.375 2.58329 1.44743 2.40842 1.57636 2.27949C1.7053 2.15056 1.88016 2.07812 2.0625 2.07812H13.75C13.9323 2.07812 14.1072 2.00569 14.2361 1.87676C14.3651 1.74783 14.4375 1.57296 14.4375 1.39062C14.4375 1.20829 14.3651 1.03342 14.2361 0.904489C14.1072 0.775558 13.9323 0.703125 13.75 0.703125H2.0625C1.51549 0.703125 0.990886 0.920424 0.604092 1.30722C0.217299 1.69401 0 2.21862 0 2.76562V13.7656C0 14.3126 0.217299 14.8372 0.604092 15.224C0.990886 15.6108 1.51549 15.8281 2.0625 15.8281H15.8125C16.1772 15.8281 16.5269 15.6833 16.7848 15.4254C17.0426 15.1675 17.1875 14.8178 17.1875 14.4531V4.82812C17.1875 4.46345 17.0426 4.11372 16.7848 3.85585C16.5269 3.59799 16.1772 3.45313 15.8125 3.45312ZM12.7188 10.3281C12.5148 10.3281 12.3154 10.2676 12.1458 10.1543C11.9762 10.041 11.8441 9.87995 11.766 9.69152C11.6879 9.50308 11.6675 9.29573 11.7073 9.09569C11.7471 8.89565 11.8453 8.71189 11.9895 8.56767C12.1338 8.42345 12.3175 8.32523 12.5176 8.28544C12.7176 8.24565 12.925 8.26607 13.1134 8.34412C13.3018 8.42218 13.4629 8.55436 13.5762 8.72394C13.6895 8.89353 13.75 9.09291 13.75 9.29688C13.75 9.57038 13.6414 9.83268 13.448 10.0261C13.2546 10.2195 12.9923 10.3281 12.7188 10.3281Z" fill="#FFD700"/>
</svg>
